<?xml version="1.0" encoding="utf-8"?>
<!-- Generator: Adobe Illustrator 26.3.1, SVG Export Plug-In . SVG Version: 6.00 Build 0)  -->
<svg version="1.1" id="Layer_1" xmlns="http://www.w3.org/2000/svg" xmlns:xlink="http://www.w3.org/1999/xlink" x="0px" y="0px"
	 viewBox="0 0 28.8 30.2" style="enable-background:new 0 0 28.8 30.2;" xml:space="preserve">
<style type="text/css">
	.st0{fill:#081B27;}
</style>
<g>
	<path class="st0" d="M24.2,18.9l-0.8-6.1C22.8,10,21,9,19.5,8.9c-0.4-2.6-2.6-4.6-5.2-4.6c0,0,0,0,0,0c-1.4,0-2.8,0.6-3.8,1.5
		C9.6,6.7,9.1,7.8,9,8.9C7.5,9,5.6,10,5.1,12.9l-0.8,6c-0.3,2.2,0,3.9,1,5c1,1.1,2.5,1.7,4.8,1.7h8.3c2,0,3.6-0.6,4.7-1.8
		C24.1,22.6,24.5,20.9,24.2,18.9z M14.2,6.4c1.6,0,2.9,1.1,3.2,2.5H11c0.1-0.6,0.4-1.1,0.9-1.6C12.5,6.7,13.3,6.4,14.2,6.4z
		 M21.6,22.5c-0.8,0.9-2.2,1.1-3.2,1.1h-8.3c-1.6,0-2.7-0.3-3.2-1c-0.6-0.7-0.8-1.8-0.5-3.4l0.8-6c0.4-2.1,1.7-2.3,2.1-2.3h10.2
		c1,0,1.8,0.9,2.1,2.2l0.8,6.1C22.4,20.6,22.2,21.7,21.6,22.5z"/>
	<path class="st0" d="M17.2,13.2c-0.6,0-1,0.4-1,1s0.4,1,1,1h0c0.6,0,1-0.4,1-1S17.7,13.2,17.2,13.2z"/>
	<path class="st0" d="M11.3,13.2c-0.6,0-1,0.4-1,1s0.4,1,1,1h0c0.6,0,1-0.4,1-1S11.9,13.2,11.3,13.2z"/>
</g>
</svg>
