<svg width="30" height="30" viewBox="0 0 30 30" fill="none" xmlns="http://www.w3.org/2000/svg">
<path opacity="0.4" d="M18.0229 6.86269C17.4278 6.75276 16.8813 7.1325 16.7681 7.71335C16.6548 8.2942 17.0357 8.86131 17.6146 8.97499C19.3574 9.31475 20.7031 10.6638 21.0442 12.4126V12.4139C21.1413 12.9173 21.5845 13.2833 22.0949 13.2833C22.1634 13.2833 22.2318 13.277 22.3015 13.2645C22.8804 13.1484 23.2613 12.5825 23.148 12.0004C22.6389 9.38845 20.6284 7.37109 18.0229 6.86269Z" fill="#ED9CAF"/>
<path opacity="0.4" d="M17.9458 2.50991C17.667 2.46994 17.3869 2.55238 17.1641 2.72976C16.935 2.90964 16.7918 3.16946 16.7607 3.46051C16.6947 4.04886 17.1193 4.58099 17.7068 4.64719C21.7589 5.09938 24.9084 8.25597 25.3641 12.3207C25.4251 12.8653 25.8819 13.2763 26.4272 13.2763C26.4683 13.2763 26.5081 13.2738 26.5492 13.2688C26.8343 13.2375 27.0882 13.0964 27.2675 12.8715C27.4455 12.6467 27.5264 12.3669 27.4941 12.0808C26.9264 7.00932 23.0013 3.07328 17.9458 2.50991Z" fill="#ED9CAF"/>
<path fill-rule="evenodd" clip-rule="evenodd" d="M13.7897 16.2155C18.776 21.2005 19.9072 15.4334 23.0821 18.606C26.1428 21.6659 27.902 22.279 24.024 26.1559C23.5383 26.5463 20.452 31.2428 9.60575 20.3996C-1.24185 9.555 3.45198 6.46556 3.84246 5.97994C7.72983 2.09231 8.33233 3.86173 11.3931 6.92166C14.568 10.0956 8.80332 11.2305 13.7897 16.2155Z" fill="#ED9CAF"/>
</svg>
