<svg width="50" height="50" viewBox="0 0 50 50" fill="none" xmlns="http://www.w3.org/2000/svg">
<circle cx="25" cy="25" r="25" fill="#FFE8E5"/>
<path d="M25.1546 33.9999C24.1478 33.9905 23.1395 34.0281 22.1361 33.9115C21.6617 33.8565 21.1991 33.7542 20.7699 33.5287C19.9423 33.0941 19.5276 32.361 19.3225 31.4752C19.1437 30.7026 19.0995 29.9135 19.0446 29.1262C18.9333 27.5322 18.831 25.937 18.7256 24.3425C18.6833 23.7046 18.6392 23.0672 18.6028 22.4289C18.5809 22.0417 18.8465 21.7354 19.2093 21.7113C19.5677 21.6876 19.8715 21.9653 19.8967 22.3477C20.0336 24.405 20.1642 26.4627 20.3059 28.5196C20.3656 29.3878 20.393 30.2601 20.5744 31.1154C20.6015 31.2438 20.6393 31.3702 20.6787 31.4955C20.8538 32.0528 21.231 32.3847 21.7882 32.5149C22.3828 32.6542 22.9886 32.6677 23.594 32.6722C24.8975 32.6824 26.2014 32.705 27.5045 32.6467C27.8877 32.6293 28.2676 32.5895 28.6393 32.4848C29.1219 32.3494 29.4457 32.0442 29.6189 31.5693C29.8033 31.0639 29.8671 30.5344 29.9046 30.0034C30.0489 27.9657 30.1828 25.9268 30.3211 23.8887C30.3553 23.3821 30.3901 22.876 30.4254 22.3695C30.4536 21.9683 30.7451 21.6884 31.1105 21.7102C31.4863 21.7328 31.7471 22.0504 31.72 22.4624C31.6102 24.1446 31.5008 25.8271 31.3861 27.5088C31.319 28.4966 31.27 29.4856 31.1654 30.4708C31.1083 31.0078 31.0211 31.5395 30.8297 32.0464C30.4495 33.0527 29.7113 33.6228 28.6845 33.8305C27.8243 34.0048 26.9518 33.9893 26.0812 33.9988C25.7722 34.0021 25.4632 33.9991 25.1542 33.9991L25.1546 33.9999Z" fill="#474545" stroke="#474545" stroke-width="0.25"/>
<path d="M24.9932 19.9521C22.5716 19.9521 20.1501 19.9521 17.7281 19.9518C17.3338 19.9518 17.0482 19.7279 17.0063 19.3926C16.9532 18.9692 17.2415 18.6388 17.6792 18.6362C18.4886 18.6317 19.2976 18.6347 20.1071 18.6347C20.8245 18.6347 21.1561 18.3942 21.3779 17.7033C21.5104 17.2901 21.6509 16.8848 21.9726 16.5725C22.3409 16.2146 22.7768 16.011 23.2865 16.0072C24.4294 15.999 25.5723 15.9963 26.7148 16.0072C27.5153 16.0151 28.2079 16.5284 28.4872 17.292C28.5514 17.4677 28.6044 17.648 28.6634 17.8256C28.8366 18.3464 29.2224 18.6324 29.7636 18.6339C30.6161 18.6362 31.4685 18.6324 32.3213 18.6358C32.6852 18.6373 32.9575 18.8721 32.995 19.2033C33.0399 19.5988 32.7791 19.9202 32.3874 19.9491C32.3199 19.954 32.2516 19.9518 32.1837 19.9518C29.7866 19.9518 27.3899 19.9518 24.9928 19.9518L24.9932 19.9521ZM25.0155 18.6347C25.5337 18.6347 26.0523 18.6347 26.5705 18.6347C26.8606 18.6347 27.1507 18.6335 27.4407 18.635C27.5287 18.6354 27.5847 18.6332 27.5368 18.5116C27.4452 18.2798 27.3703 18.0412 27.2875 17.806C27.174 17.4824 26.9726 17.3232 26.6384 17.3217C25.5459 17.3176 24.4539 17.3176 23.3614 17.3221C23.0342 17.3236 22.8302 17.4805 22.7197 17.7913C22.6403 18.0145 22.5768 18.2444 22.486 18.4627C22.4225 18.6147 22.4626 18.6381 22.6084 18.6369C23.4107 18.6313 24.2131 18.6343 25.0151 18.6343L25.0155 18.6347Z" fill="#474545" stroke="#474545" stroke-width="0.25"/>
<path d="M27.9767 24.5408C27.9237 25.0981 27.8751 25.6212 27.8246 26.1439C27.7649 26.76 27.7044 27.376 27.6428 27.9916C27.6076 28.3465 27.5779 28.7017 27.5304 29.0551C27.4856 29.3912 27.1435 29.647 26.8204 29.6049C26.4751 29.5601 26.2169 29.2497 26.2447 28.8929C26.2748 28.5064 26.3197 28.1211 26.3579 27.735C26.418 27.1254 26.4769 26.5154 26.5378 25.9057C26.586 25.4203 26.6287 24.9341 26.6888 24.4501C26.7296 24.119 27.0567 23.8695 27.3795 23.8988C27.7141 23.9293 27.9793 24.2292 27.9771 24.5401L27.9767 24.5408Z" fill="#474545" stroke="#474545" stroke-width="0.25"/>
<path d="M24.0825 28.9145C24.0859 29.2829 23.808 29.5896 23.4675 29.6096C23.1344 29.6291 22.8235 29.3657 22.789 29.021C22.6978 28.1126 22.6136 27.2038 22.5234 26.2954C22.4696 25.7542 22.4125 25.2131 22.3528 24.6727C22.3098 24.2813 22.5709 23.937 22.9441 23.9012C23.2968 23.8674 23.607 24.1432 23.6455 24.5259C23.7906 25.9691 23.9353 27.4123 24.0796 28.8558C24.0822 28.8807 24.0822 28.9059 24.0825 28.9145Z" fill="#474545" stroke="#474545" stroke-width="0.25"/>
</svg>
