<svg width="23" height="26" viewBox="0 0 23 26" fill="none" xmlns="http://www.w3.org/2000/svg">
<path d="M11.8724 24.9989C10.5301 24.9863 9.18578 25.0365 7.84791 24.881C7.21533 24.8077 6.59857 24.6712 6.02633 24.3707C4.9229 23.7912 4.36995 22.8138 4.09644 21.6327C3.85805 20.6026 3.79919 19.5504 3.72599 18.5008C3.57761 16.3754 3.44111 14.2485 3.30064 12.1226C3.24426 11.2722 3.1854 10.4222 3.13693 9.57125C3.10775 9.05495 3.46188 8.64653 3.94559 8.61442C4.42336 8.58281 4.82843 8.9531 4.86207 9.46287C5.04457 12.2059 5.21867 14.9494 5.4076 17.692C5.48723 18.8495 5.52383 20.0125 5.76568 21.153C5.80179 21.3241 5.85224 21.4927 5.90466 21.6598C6.13811 22.4028 6.64111 22.8454 7.38398 23.019C8.17681 23.2046 8.98448 23.2227 9.79165 23.2287C11.5296 23.2423 13.2681 23.2724 15.0056 23.1946C15.5165 23.1715 16.023 23.1183 16.5186 22.9788C17.162 22.7982 17.5938 22.3913 17.8248 21.7581C18.0706 21.0843 18.1557 20.3783 18.2056 19.6703C18.398 16.9534 18.5766 14.235 18.7611 11.5175C18.8066 10.8422 18.853 10.1673 18.9 9.49197C18.9376 8.95711 19.3264 8.58382 19.8135 8.61292C20.3146 8.64302 20.6623 9.06649 20.6262 9.6159C20.4798 11.8587 20.3339 14.102 20.181 16.3443C20.0915 17.6614 20.0262 18.9799 19.8867 20.2935C19.8106 21.0095 19.6943 21.7185 19.4391 22.3943C18.9322 23.736 17.9479 24.4961 16.5789 24.7731C15.432 25.0054 14.2687 24.9848 13.1079 24.9974C12.6959 25.0019 12.2839 24.9979 11.8719 24.9979L11.8724 24.9989Z" fill="#474545" stroke="#474545" stroke-width="0.25"/>
<path d="M11.6574 6.26942C8.42871 6.26942 5.20002 6.26942 1.97084 6.26892C1.44509 6.26892 1.06426 5.97038 1.00837 5.52333C0.937643 4.95887 1.32194 4.51833 1.90556 4.51482C2.98475 4.5088 4.06346 4.51281 5.14265 4.51281C6.09919 4.51281 6.54135 4.1922 6.83712 3.271C7.01369 2.72008 7.20114 2.17971 7.62995 1.76326C8.12108 1.2861 8.70222 1.01466 9.38179 1.00964C10.9056 0.998602 12.4295 0.99509 13.9528 1.00964C15.0201 1.02018 15.9435 1.70456 16.3159 2.72259C16.4015 2.95691 16.4722 3.19724 16.5509 3.43407C16.7819 4.12848 17.2962 4.5098 18.0178 4.51181C19.1544 4.51482 20.291 4.5098 21.428 4.51432C21.9132 4.51633 22.2763 4.82942 22.3262 5.27095C22.3861 5.79828 22.0384 6.22677 21.5161 6.26541C21.4261 6.27193 21.3351 6.26892 21.2445 6.26892C18.0485 6.26892 14.8529 6.26892 11.6569 6.26892L11.6574 6.26942ZM11.6871 4.51281C12.378 4.51281 13.0695 4.51281 13.7604 4.51281C14.1472 4.51281 14.5339 4.51131 14.9207 4.51332C15.0379 4.51382 15.1126 4.51081 15.0488 4.34874C14.9266 4.03967 14.8267 3.72157 14.7164 3.40798C14.5651 2.97648 14.2965 2.76424 13.8509 2.76223C12.3943 2.75671 10.9383 2.75671 9.4817 2.76273C9.04547 2.76474 8.77344 2.97397 8.62605 3.38841C8.52021 3.68594 8.43564 3.99251 8.31446 4.28352C8.22989 4.48622 8.2833 4.51733 8.47768 4.51583C9.54748 4.5083 10.6173 4.51231 11.6866 4.51231L11.6871 4.51281Z" fill="#474545" stroke="#474545" stroke-width="0.25"/>
<path d="M15.635 12.3884C15.5643 13.1315 15.4995 13.8289 15.4322 14.5258C15.3526 15.3472 15.2719 16.1685 15.1898 16.9894C15.1429 17.4625 15.1033 17.9362 15.04 18.4073C14.9801 18.8554 14.5241 19.1966 14.0933 19.1404C13.6329 19.0807 13.2886 18.6667 13.3257 18.1911C13.3658 17.6758 13.4256 17.162 13.4766 16.6472C13.5567 15.8344 13.6353 15.0211 13.7165 14.2082C13.7808 13.561 13.8376 12.9127 13.9178 12.2675C13.9722 11.8259 14.4084 11.4933 14.8387 11.5324C15.2848 11.5731 15.6384 11.973 15.6355 12.3874L15.635 12.3884Z" fill="#474545" stroke="#474545" stroke-width="0.25"/>
<path d="M10.4431 18.2192C10.4475 18.7104 10.0771 19.1194 9.62304 19.1459C9.1789 19.172 8.76443 18.8208 8.71843 18.3612C8.59677 17.15 8.48449 15.9383 8.36431 14.7271C8.29259 14.0056 8.21643 13.2841 8.1368 12.5636C8.07942 12.0418 8.42762 11.5827 8.92517 11.535C9.39553 11.4898 9.80901 11.8576 9.86044 12.3679C10.0538 14.2921 10.2467 16.2163 10.4391 18.141C10.4426 18.1741 10.4426 18.2077 10.4431 18.2192Z" fill="#474545" stroke="#474545" stroke-width="0.25"/>
</svg>
