<?xml version="1.0" encoding="utf-8"?>
<!-- Generator: Adobe Illustrator 26.3.1, SVG Export Plug-In . SVG Version: 6.00 Build 0)  -->
<svg version="1.1" id="Layer_1" xmlns="http://www.w3.org/2000/svg" xmlns:xlink="http://www.w3.org/1999/xlink" x="0px" y="0px"
	 viewBox="0 0 512 509.6" style="enable-background:new 0 0 512 509.6;" xml:space="preserve">
<style type="text/css">
	.st0{fill:#F38393;}
	.st1{fill:#FFFFFF;}
</style>
<g>
	<path class="st0" d="M256,504.8c138.1,0,250-111.9,250-250c0-138.1-111.9-250-250-250C117.9,4.8,6,116.7,6,254.8
		C6,392.9,117.9,504.8,256,504.8z"/>
	<path class="st1" d="M465.1,236.2c-6-53.4-33.1-93.6-79.1-121.1c-1.5-0.9-3-2.1-4.8-0.5c-1.2,2-0.2,3.9,0.2,5.9
		c3.9,20.7,5.9,41.6,4.9,62.7c-1.1,22.4-6.9,43.5-19.6,62.2c-13,19.1-31.4,32-51.1,43.3c-18.5,10.6-36.7,21.5-51.1,37.7
		c-0.2,0.2-0.8,0-1.5,0c2.4-3.4,4.8-6.6,6.9-10c5.4-9,9.5-18.3,8.9-29.3c-1.1-20.2-14.5-33.4-34.5-32.6c-8.4,0.3-14.6-2.8-20.2-8.5
		C210.2,232,193.7,225.6,174,226c-15.2,0.3-30.3,2.3-45.5,2.5c-10.1,0.1-18.8-3.2-26.6-9.4c-4.5-3.6-6.6-8.1-4.5-14.5
		c11.5,1.7,22.6,3.7,33.9,4.8c16.4,1.5,32.9,2.6,48.3-5.5c2.7-1.4,6.1-2.5,6.5-6.9c-1.3-0.1-2.3-0.5-3.2-0.2
		c-21.1,7.3-42.5,4.8-63.8,1.8c-9.9-1.4-20.1-2.4-29.5-6.9c-10.4-4.9-10.1-14.8-11.2-24c-0.9-7.1,4.6-8.7,9.2-11.2
		c4.8-2.6,8.4-6.2,6.8-12.6c-4.1-0.1-6.1,3.1-9.1,4.3c-3.2,1.3-6.4,3.4-10,1.3c-0.5-0.9-0.8-1.8-1.1-2.7c0,0.1,0,0.1,0,0.2
		c0-0.1-0.1-0.3-0.1-0.4c-0.3-1-0.5-2-0.6-3c-0.4-3.7,0.2-7.6,2.7-10.5c0.6-0.7,1.2-1.2,1.9-1.8c2.6-2.5,6.3-4.3,10.6-4.6
		c5-0.4,9.8,0.5,14.5,1.6c5,0.7,10,1.8,15,2.4c3.7,0.5,7.4,0.9,11.1,0.9c5.6-0.6,11.1-2,16.7-4.1c19.2-7.4,35.5-19.4,51.3-32
		c17.3-13.7,36.8-16.9,58-13.2c23.3,4.1,43,14.4,61,28c3,2.2,5.9,4.4,8.7,6.9c3.3,2.7,6.5,5.6,9.7,8.5
		c32.6,29.8,30.5,69.8,14.1,100.7c-11.2,21-29.7,27.6-51.9,19.5c-14.4-5.2-24.9-15.3-32.9-28.1c-0.9-1.4-1.7-2.8-2.5-4.3
		c-2.7-4.3-5.2-8.7-7.3-13.3c-7.7-16.1-11.8-33.6-14.1-51.1c1.9,11.1,4.4,22.1,8,32.6c-2.7-9.2-4.8-18.5-6.3-28.1
		c-0.5-3,0-6.5-3.5-9.7c-2.3,10.7-0.8,20.4,0.3,30c3.3,27.3,11.9,52.3,33,71.4c20.9,19,50,22,72,6.9c15.6-10.7,22.8-26.7,26.3-44.6
		c6.4-33.4,1.6-64.3-22.9-89.6c-24.8-25.6-55.1-41.6-89.9-49.3c-23.1-5.1-44.1-0.7-63.1,13.7c-11.3,8.5-22.8,16.8-35,24.2
		c-16.6,10.1-34.4,12.8-53.3,9.3c-5.7-1.1-11.5-2-17.3-1.7c-22.4,1.2-34,26.8-23,41.2c2.4,3.2,2.9,6.9,2.9,10.8
		c0,3.8,0.1,7.6,0.5,11.4c1.2,11.8,9.4,18.6,19.1,24.9c0.6,13.7-2.4,26.7-1.4,39.8c0.9,11.3-1.5,22-5,32.7
		c-11.4,34.7-5.9,67,15.5,96.5c24.3,33.5,58.7,52.1,97.6,63.1c52.2,14.7,103.2,8.6,153.1-11.2C422.4,393.8,475.1,325.2,465.1,236.2
		L465.1,236.2z M453.6,271.8c-6.8,67.5-46.1,110.5-106.1,136.4c-39.9,17.2-81.7,25.5-125.3,18.6c-44.5-7-83.1-25.6-111.8-61.3
		c-19.5-24.2-24.9-52.3-18.8-82.3c3.2-16,5.4-31.9,4.5-48.2c-0.1-1.7,0.4-3.4,0.7-5.1c4.1-1.4,6.6,1.3,9.1,3
		c8.5,5.8,17.7,8.2,28,7.8c13.4-0.5,26.8-0.3,40.2-0.8c15.3-0.5,28.4,4.2,39.1,15.2c5.4,5.6,11.7,9.7,19.4,11.3
		c3.7,0.8,6.5,2.9,8.2,6.2c3.2,6.2,7.7,9.8,15.1,9.2c2.8-0.2,5.5,0.7,8.2,3.5c1.2,8-1.2,15.8-5.1,23.4
		c-6.8,13.2-18.3,21.3-30.5,28.8c-5.8,3.6-12,6.6-17.2,11.1c-13,11.2-11.3,29.5,4,39.2c1.1-5.1-1.7-9.4-2.4-13.8
		c-1.5-9.4,0.4-14.3,8.4-19.2c10.5-6.4,22.8-9.4,33.2-17.4c-15.6,29.2-10.8,57.9-0.4,88.1c55.3-11.9,102.9-35.4,136.5-81.5
		c30.3-41.6,37.5-88.8,31.3-138.6l-2.6-0.5c-1,9.4-1.8,18.8-3.1,28.1c-3.9,29.4-11.6,57.6-26.9,83.2c-22.6,37.6-54.9,62.9-96.9,75.7
		c-7.4,2.3-14.8,4.8-22.6,7.4c-10.3-20.2-3.6-37.2,5.8-54c9.4-16.7,23.8-28,39.7-37.7c18.4-11.2,36.6-22.6,50.6-39.5
		c20.2-24.4,29.6-52.6,30.8-83.9c0.5-13.7,0.1-27.3-2.2-40.9c-0.6-3.4-0.4-7-0.6-10.1c2.7-1.8,3.9-0.1,5.2,1
		C440.4,171,459.1,216.7,453.6,271.8L453.6,271.8z"/>
	<path class="st1" d="M190.5,283.9c5.3-0.1,10.1-5.1,10-10.3c-0.1-5.3-5-10.1-10.3-10c-5.3,0.1-10.1,5.1-10,10.4
		C180.2,279.2,185.2,284,190.5,283.9z"/>
	<path class="st1" d="M195.3,154.2c0.6,0.6,1.4,0.9,2.2,0.9c0.9,0,1.9-0.4,2.5-1.3c0.4-0.6,4.3-5.7,3.5-12.5
		c-0.5-4.5-2.8-8.4-6.9-11.7c-4.2-3.4-8.4-4.7-12.5-3.9c-5.8,1.1-9,6-9.4,6.6c-1,1.7-0.7,4,0.8,5.1c1.5,1.2,3.6,0.7,4.6-0.9
		c0,0,1.9-2.9,5-3.5c2.3-0.4,4.8,0.5,7.5,2.6c2.5,2,3.9,4.3,4.2,6.6c0.4,3.7-2,6.9-2,6.9C193.7,150.6,193.9,152.9,195.3,154.2
		L195.3,154.2z"/>
</g>
</svg>
