<svg width="42" height="42" viewBox="0 0 42 42" fill="none" xmlns="http://www.w3.org/2000/svg">
<g clip-path="url(#clip0_1_1149)">
<path fill-rule="evenodd" clip-rule="evenodd" d="M20.6638 0.147949C32.076 0.147949 41.3275 9.39943 41.3275 20.8117C41.3275 31.1256 33.7711 39.6742 23.8925 41.2243V26.7848L28.7073 26.7848L29.6234 20.8117H23.8925V16.9355C23.8925 15.3014 24.693 13.7085 27.2599 13.7085H29.8656L29.8656 8.62332C29.8656 8.62332 27.5009 8.21973 25.24 8.21973C20.52 8.21973 17.435 11.0804 17.435 16.2592V20.8117H12.1884V26.7848H17.435V41.2243C7.55644 39.6742 0 31.1256 0 20.8117C0 9.39943 9.25148 0.147949 20.6638 0.147949Z" fill="#474545"/>
</g>
<defs>
<clipPath id="clip0_1_1149">
<rect width="41.3275" height="41.3275" fill="white" transform="translate(0 0.147949)"/>
</clipPath>
</defs>
</svg>
