<svg id="vector" xmlns="http://www.w3.org/2000/svg" width="23" height="18" viewBox="0 0 23 18"><path fill="#ffffff" d="M7.099,13.493C7.099,12.805 7.099,12.142 7.099,11.48C7.099,11.256 7.099,11.255 6.883,11.255C4.985,11.255 3.087,11.256 1.189,11.254C1.091,11.254 0.991,11.246 0.896,11.222C0.653,11.16 0.501,10.948 0.5,10.688C0.499,10.428 0.651,10.214 0.894,10.152C0.994,10.127 1.1,10.12 1.204,10.12C3.091,10.118 4.978,10.119 6.865,10.119C7.021,10.119 7.099,10.039 7.099,9.879C7.099,9.294 7.099,8.709 7.099,8.124C7.099,7.962 7.017,7.881 6.852,7.88C5.862,7.88 4.872,7.88 3.881,7.88C3.627,7.88 3.415,7.799 3.298,7.549C3.12,7.167 3.389,6.758 3.83,6.746C4.143,6.738 4.457,6.744 4.77,6.744C5.48,6.744 6.189,6.739 6.899,6.748C7.06,6.749 7.105,6.697 7.103,6.536C7.094,5.974 7.105,5.411 7.097,4.849C7.093,4.571 7.208,4.386 7.441,4.248C9.778,2.871 12.114,1.491 14.448,0.108C14.688,-0.034 14.907,-0.037 15.145,0.105C17.485,1.49 19.825,2.872 22.167,4.253C22.394,4.387 22.5,4.573 22.5,4.844C22.497,7.617 22.497,10.389 22.5,13.161C22.5,13.425 22.396,13.61 22.175,13.741C19.829,15.125 17.484,16.51 15.139,17.897C14.907,18.035 14.691,18.034 14.457,17.895C12.67,16.835 10.881,15.779 9.089,14.727C8.991,14.669 8.863,14.634 8.75,14.634C6.786,14.628 4.822,14.63 2.858,14.629C2.76,14.629 2.659,14.624 2.564,14.601C2.309,14.541 2.152,14.33 2.15,14.064C2.149,13.797 2.305,13.585 2.558,13.523C2.648,13.501 2.743,13.495 2.836,13.495C4.194,13.493 5.553,13.493 6.912,13.493C6.981,13.493 7.051,13.493 7.098,13.493H7.099ZM14.225,16.439C14.233,16.38 14.242,16.343 14.242,16.306C14.243,14.022 14.243,11.739 14.238,9.455C14.238,9.388 14.183,9.293 14.127,9.259C12.202,8.116 10.275,6.979 8.347,5.841C8.308,5.818 8.263,5.803 8.198,5.774C8.198,6.082 8.194,6.362 8.203,6.642C8.204,6.677 8.272,6.735 8.313,6.738C8.45,6.751 8.588,6.738 8.726,6.746C9.063,6.762 9.287,6.987 9.29,7.304C9.293,7.63 9.067,7.862 8.724,7.878C8.593,7.885 8.46,7.885 8.328,7.879C8.227,7.875 8.195,7.916 8.196,8.017C8.199,8.67 8.199,9.323 8.196,9.975C8.195,10.086 8.231,10.122 8.338,10.121C8.712,10.116 9.087,10.119 9.461,10.119C9.945,10.119 10.429,10.113 10.913,10.122C11.354,10.13 11.622,10.542 11.443,10.925C11.326,11.175 11.114,11.255 10.859,11.255C10.028,11.255 9.198,11.257 8.367,11.253C8.244,11.253 8.192,11.28 8.194,11.421C8.203,11.865 8.2,12.309 8.196,12.754C8.195,12.856 8.226,12.914 8.315,12.967C10.235,14.096 12.153,15.229 14.071,16.361C14.116,16.387 14.164,16.408 14.226,16.44L14.225,16.439ZM16.719,8.53C16.641,8.571 16.592,8.593 16.547,8.62C16.199,8.825 15.854,9.035 15.504,9.233C15.393,9.296 15.351,9.368 15.352,9.498C15.356,11.748 15.354,13.998 15.355,16.247C15.355,16.305 15.362,16.363 15.367,16.444C15.435,16.41 15.479,16.392 15.521,16.367C17.438,15.236 19.355,14.103 21.275,12.974C21.369,12.918 21.402,12.857 21.402,12.747C21.4,10.475 21.4,8.203 21.4,5.931C21.4,5.885 21.391,5.839 21.385,5.769C20.966,6.016 20.573,6.252 20.176,6.479C20.06,6.544 20.018,6.624 20.019,6.76C20.025,7.643 20.019,8.526 20.024,9.409C20.025,9.664 19.931,9.852 19.714,9.979C18.979,10.41 18.248,10.844 17.51,11.268C17.421,11.319 17.299,11.346 17.198,11.335C16.897,11.302 16.722,11.072 16.72,10.731C16.717,10.073 16.719,9.415 16.719,8.757C16.719,8.692 16.719,8.627 16.719,8.53ZM13.449,2.032C13.513,2.075 13.556,2.107 13.601,2.133C15.519,3.265 17.438,4.395 19.354,5.529C19.442,5.581 19.508,5.586 19.596,5.532C19.959,5.311 20.327,5.097 20.693,4.879C20.733,4.856 20.767,4.823 20.824,4.779C20.753,4.735 20.704,4.702 20.653,4.672C20.069,4.326 19.484,3.979 18.899,3.634C17.58,2.855 16.261,2.079 14.944,1.298C14.841,1.237 14.761,1.235 14.657,1.298C14.309,1.513 13.955,1.717 13.603,1.927C13.557,1.954 13.515,1.986 13.449,2.031V2.032ZM16.156,7.557C16.092,7.511 16.06,7.483 16.023,7.462C14.098,6.324 12.172,5.188 10.248,4.047C10.153,3.991 10.082,3.999 9.992,4.052C9.636,4.264 9.276,4.469 8.918,4.677C8.874,4.703 8.834,4.736 8.773,4.779C8.842,4.824 8.886,4.855 8.932,4.882C9.512,5.225 10.092,5.566 10.673,5.908C12.005,6.694 13.335,7.481 14.669,8.264C14.724,8.296 14.818,8.327 14.863,8.301C15.287,8.066 15.705,7.819 16.156,7.557V7.557ZM18.355,6.257C18.292,6.211 18.256,6.18 18.216,6.156C16.293,5.02 14.371,3.886 12.449,2.749C12.364,2.7 12.295,2.691 12.206,2.745C11.938,2.91 11.664,3.066 11.393,3.227C11.348,3.253 11.308,3.287 11.251,3.329C11.318,3.373 11.363,3.405 11.409,3.432C13.207,4.495 15.013,5.545 16.797,6.632C17.16,6.853 17.432,6.884 17.76,6.621C17.934,6.481 18.141,6.385 18.355,6.257ZM18.924,7.247C18.852,7.281 18.808,7.299 18.767,7.323C18.5,7.479 18.235,7.64 17.965,7.79C17.866,7.845 17.827,7.912 17.828,8.028C17.834,8.562 17.83,9.096 17.831,9.63C17.831,9.677 17.84,9.725 17.844,9.773C17.874,9.773 17.893,9.779 17.905,9.772C18.225,9.585 18.544,9.399 18.86,9.207C18.894,9.187 18.921,9.125 18.921,9.083C18.925,8.483 18.924,7.882 18.924,7.247Z" id="path_0"/></svg>