<svg id="vector" xmlns="http://www.w3.org/2000/svg" width="282.44" height="191.68" viewBox="0 0 282.44 191.68"><path fill="#ebebeb" d="M282.44,48.15l-4.88,23.61 -3.14,-3.06 -5.34,3.81 -4.08,-5.07 -9.15,6.65 -7.82,-13.07 -8.72,5.11 -3.46,-4.77 -11.07,6.24 -3.33,-7.14 7.76,-37.6 41.62,8.59Z" id="path_0"/><path fill="#dbdbdb" d="M270.83,31.46l11.6,16.69 -14.44,-2.98Z" id="path_1"/><path fill="#ebebeb" d="M276.52,76.48l-7.15,34.64L213.32,99.54l7.1,-34.36 3.33,7.13 11.08,-6.24 3.45,4.77 8.73,-5.1 7.81,13.07 9.15,-6.65 4.07,5.06 5.34,-3.8Z" id="path_2"/><path fill="#ebebeb" d="M196.29,72.42l-57.13,3.54L134.63,2.63l42.42,-2.63L192.62,13.07Z" id="path_3"/><path fill="#dbdbdb" d="M177.05,0 L192.62,13.07l-14.71,0.91Z" id="path_4"/><path fill="#dbdbdb" d="M161.24,49.34l-0.22,-1.65c-0.58,-3.43 0.36,-7.26 3.34,-11.27 2.69,-3.57 4.15,-6.11 3.98,-9.01 -0.18,-3.26 -2.35,-5.32 -6.38,-5.16a11.36,11.36 0,0 0,-6.34 2.34l-1.76,-3.94a16.68,16.68 0,0 1,8.99 -3.06c7.35,-0.41 10.93,3.94 11.21,8.8 0.24,4.34 -2.01,7.61 -4.87,11.43 -2.63,3.48 -3.49,6.35 -3.12,9.59l0.16,1.66ZM160.33,58.36a3.78,3.78 0,0 1,3.61 -4.24,4 4,0 1,1 -3.63,4.24Z" id="path_5"/><path fill="#ffc4c0" d="M99.73,185.59c-1.19,0.4 -35.22,0.51 -36.52,-0.3 -0.51,-0.31 -0.8,-5.26 -1.02,-11.26 -0.05,-1.29 -0.08,-2.63 -0.11,-3.99L59.36,151.89l22.75,-0.15L84.26,169.9l-0.09,3.99s13.05,5.78 14.38,6.83S100.92,185.19 99.73,185.59Z" id="path_6"/><path fill="#fff" d="M99.73,185.59c-1.19,0.4 -35.22,0.51 -36.52,-0.3 -0.6,-0.38 -0.93,-7.61 -1.11,-15.25l22.14,-0.14 -0.09,3.99s13.05,5.78 14.38,6.83S100.92,185.19 99.73,185.59Z" id="path_7"/><path fill="#a6a6a6" d="M99.73,185.59c-1.19,0.4 -35.22,0.51 -36.52,-0.3 -0.51,-0.31 -0.8,-5.26 -1.02,-11.26l21.94,-0.14s13.05,5.78 14.38,6.83S100.92,185.19 99.73,185.59Z" id="path_8"/><path fill="#263238" d="M99.24,184.23c-5.7,-0.12 -28.73,-0.07 -34.38,0.25 -0.05,0 -0.05,0.03 0,0.04 5.65,0.24 28.68,0 34.38,-0.19C99.36,184.32 99.36,184.23 99.24,184.23Z" id="path_9"/><path fill="#263238" d="M96.34,179.51a4.58,4.58 0,0 0,-3.41 1.41,4.41 4.41,0 0,0 -1.26,3.06c0,0.04 0.06,0.04 0.07,0a5.3,5.3 0,0 1,4.58 -4.38,0.04 0.04,0 0,0 0.02,-0.08Z" id="path_10"/><path fill="#263238" d="M86.36,174.46c-2.28,-0.03 -4.93,0.79 -6.34,2.66 -0.05,0.07 0.05,0.15 0.12,0.11a31.71,31.71 0,0 1,6.26 -2.5,0.14 0.14,0 0,0 -0.04,-0.28Z" id="path_11"/><path fill="#263238" d="M88.13,175.13c-2.29,0 -4.93,0.8 -6.34,2.66 -0.06,0.08 0.05,0.15 0.12,0.12a31.37,31.37 0,0 1,6.26 -2.5,0.14 0.14,0 0,0 -0.04,-0.28Z" id="path_12"/><path fill="#263238" d="M89.89,175.82c-2.28,0 -4.93,0.79 -6.34,2.66 -0.05,0.07 0.05,0.15 0.12,0.11a31.7,31.7 0,0 1,6.26 -2.5,0.14 0.14,0 0,0 -0.04,-0.28Z" id="path_13"/><path fill="#263238" d="M91.66,176.5c-2.29,-0.03 -4.93,0.79 -6.34,2.66 -0.06,0.07 0.05,0.15 0.12,0.11a31.58,31.58 0,0 1,6.26 -2.5,0.14 0.14,0 0,0 -0.04,-0.28Z" id="path_14"/><path fill="#263238" d="M66.29,179.06c-2.55,0 -2.55,4 0,3.98S68.86,179.04 66.29,179.06Z" id="path_15"/><path fill="#263238" d="M88.81,168.35c-1.16,-0.96 -2.61,0 -3.32,0.98a12.01,12.01 0,0 0,-2.04 5.85,0.06 0.06,0 0,0 0.07,0.07 0.28,0.28 0,0 0,0.41 0.18c1.62,-1.13 3.49,-2.13 4.72,-3.73C89.35,170.77 89.92,169.25 88.81,168.35ZM86.03,173.21c-0.78,0.58 -1.59,1.11 -2.36,1.72 0.41,-1.14 0.76,-2.29 1.28,-3.39a12.76,12.76 0,0 1,0.82 -1.53c0.51,-0.76 2.73,-2.67 2.96,-0.19C88.87,171.18 86.96,172.53 86.03,173.21Z" id="path_16"/><path fill="#263238" d="M77.76,176.05c1.99,0.3 4.04,-0.28 5.99,-0.59a0.28,0.28 0,0 0,0.17 -0.42,0.06 0.06,0 0,0 0,-0.1 11.97,11.97 0,0 0,-5.53 -2.79c-1.2,-0.23 -2.9,0.1 -3.06,1.59C75.15,175.16 76.6,175.87 77.76,176.05ZM76.38,174.76c-1.53,-1.96 1.39,-2.12 2.27,-1.92a13.03,13.03 0,0 1,1.67 0.54,35.44 35.44,0 0,1 3.27,1.55c-0.97,0.1 -1.92,0.27 -2.88,0.4C79.55,175.49 77.24,175.83 76.38,174.76Z" id="path_17"/><path fill="#37474f" d="M25.91,67.99s26.42,44.95 27.13,48.1c1.09,4.85 6.84,52.73 6.84,52.73l27.51,-0.51s-4.74,-42.22 -9.23,-56.13c-3.23,-10.02 -26.55,-43.25 -26.55,-43.25Z" id="path_18"/><path fill="#263238" d="M84.88,164.12c-3.95,-0.03 -17.94,-0.19 -23.2,0.3 -0.04,0 -0.04,0.07 0,0.08 1.81,0.26 19.24,-0.14 23.19,-0.27a0.06,0.06 0,1 0,0 -0.11Z" id="path_19"/><path fill="#263238" d="M30.42,72.11c1.73,2.71 3.57,5.37 5.33,8.07s3.54,5.39 5.28,8.08q5.23,8.15 10.19,16.41A50.23,50.23 0,0 1,55.34 112.71a49.28,49.28 0,0 1,2.32 8.63c0.54,2.95 0.9,5.93 1.23,8.91q0.51,4.75 1.07,9.51 1.09,9.73 2.17,19.47c0.09,0.8 0.17,1.59 0.25,2.39a0.11,0.11 0,0 1,-0.21 0c-0.81,-6.44 -1.48,-12.91 -2.22,-19.36q-0.55,-4.82 -1.1,-9.64c-0.34,-2.99 -0.67,-5.99 -1.13,-8.95a58.58,58.58 0,0 0,-1.94 -8.66,41.59 41.59,0 0,0 -3.8,-8.4c-3.18,-5.5 -6.55,-10.9 -9.93,-16.3s-6.84,-10.85 -10.39,-16.19c-0.44,-0.66 -0.88,-1.31 -1.34,-1.96C30.29,72.1 30.39,72.06 30.42,72.11Z" id="path_20"/><path fill="#ffc4c0" d="M34.57,188.24c-1.25,-0.08 -33.62,-13.19 -34.51,-14.43a0.43,0.43 0,0 1,-0.05 -0.24c0,-1.12 2.25,-5.01 4.12,-10.12 0.12,-0.33 0.95,-1.84 2.11,-3.89 3.21,-5.6 8.82,-15.24 8.82,-15.24l21.15,8.4 -10.13,15.15 -1.57,3.67s9.93,10.26 10.76,11.72S35.82,188.31 34.57,188.24Z" id="path_21"/><path fill="#fff" d="M34.57,188.24c-1.25,-0.08 -33.62,-13.19 -34.51,-14.43a0.43,0.43 0,0 1,-0.05 -0.24c0,-1.12 2.25,-5.01 4.12,-10.12 0.12,-0.33 0.95,-1.84 2.11,-3.89l19.86,8.32 -1.57,3.67s9.93,10.26 10.76,11.72S35.82,188.31 34.57,188.24Z" id="path_22"/><path fill="#a6a6a6" d="M34.57,188.24c-1.25,-0.08 -33.62,-13.19 -34.51,-14.43 -0.35,-0.47 1.1,-4.89 4.07,-10.36l20.37,8.1s9.93,10.25 10.77,11.72S35.82,188.31 34.57,188.24Z" id="path_23"/><path fill="#263238" d="M34.62,186.79C29.38,184.54 8.02,175.96 2.66,174.13c-0.05,0 -0.06,0 0,0.03 5.15,2.34 26.58,10.76 31.94,12.73C34.7,186.92 34.73,186.84 34.62,186.79Z" id="path_24"/><path fill="#263238" d="M33.7,181.33a4.58,4.58 0,0 0,-3.69 0,4.43 4.43,0 0,0 -2.31,2.35c0,0.03 0.05,0.06 0.06,0.03a5.3,5.3 0,0 1,5.91 -2.34A0.04,0.04 0,0 0,33.7 181.33Z" id="path_25"/><path fill="#263238" d="M26.35,172.9c-2.1,-0.88 -4.86,-1.12 -6.88,0.09 -0.08,0.05 0,0.15 0.07,0.15a31.75,31.75 0,0 1,6.74 0.04,0.14 0.14,0 0,0 0.07,-0.28Z" id="path_26"/><path fill="#263238" d="M27.73,174.2c-2.1,-0.88 -4.86,-1.12 -6.88,0.09 -0.08,0.05 0,0.15 0.07,0.15a31.42,31.42 0,0 1,6.74 0.04,0.14 0.14,0 0,0 0.07,-0.28Z" id="path_27"/><path fill="#263238" d="M29.12,175.49c-2.11,-0.88 -4.87,-1.12 -6.88,0.09 -0.08,0.05 0,0.15 0.06,0.15a31.42,31.42 0,0 1,6.74 0.04,0.14 0.14,0 0,0 0.07,-0.28Z" id="path_28"/><path fill="#263238" d="M30.5,176.78c-2.11,-0.88 -4.86,-1.12 -6.88,0.09 -0.08,0.05 0,0.16 0.06,0.15a31.42,31.42 0,0 1,6.74 0.04,0.14 0.14,0 0,0 0.07,-0.28Z" id="path_29"/><path fill="#263238" d="M6.03,169.64c-2.38,-0.95 -3.86,2.76 -1.47,3.7S8.43,170.59 6.03,169.64Z" id="path_30"/><path fill="#263238" d="M30.91,168.16c-0.72,-1.32 -2.41,-0.99 -3.45,-0.34a11.98,11.98 0,0 0,-4.07 4.65,0.06 0.06,0 0,0 0.04,0.09c0,0.17 0.11,0.37 0.31,0.33 1.93,-0.44 4.04,-0.67 5.78,-1.69C30.51,170.61 31.59,169.41 30.91,168.16ZM26.5,171.62c-0.94,0.24 -1.89,0.43 -2.82,0.71a35.62,35.62 0,0 1,2.45 -2.66,12.91 12.91,0 0,1 1.35,-1.12c0.74,-0.51 3.53,-1.45 2.82,0.94C29.91,170.81 27.63,171.34 26.5,171.63Z" id="path_31"/><path fill="#263238" d="M17.78,171.16c1.73,1.02 3.85,1.26 5.77,1.71 0.2,0.05 0.33,-0.15 0.32,-0.33a0.06,0.06 0,0 0,0.04 -0.09,11.98 11.98,0 0,0 -4.07,-4.66c-1.02,-0.66 -2.72,-0.99 -3.45,0.32S16.77,170.56 17.78,171.16ZM16.99,169.43c-0.71,-2.39 2.08,-1.44 2.82,-0.93a12.39,12.39 0,0 1,1.35 1.13,35.67 35.67,0 0,1 2.44,2.67c-0.93,-0.28 -1.88,-0.47 -2.82,-0.71C19.63,171.28 17.38,170.77 16.99,169.43Z" id="path_32"/><path fill="#37474f" d="M27.72,167.04l-23.68,-9.56s29.36,-43.17 29.57,-46.38c0.19,-2.84 -12.7,-27.61 -13.21,-34.83a21.54,21.54 0,0 1,7.32 -17.56L52.15,69.09a21.35,21.35 0,0 1,-6.62 6.42s12.52,28.63 11.81,37.43S27.72,167.04 27.72,167.04Z" id="path_33"/><path fill="#263238" d="M28.77,162.53c-3.42,-1.47 -2.42,-1.1 -5.86,-2.55 -1.68,-0.7 -12.73,-5.3 -14.44,-5.68 -0.04,0 -0.06,0.05 -0.03,0.07 1.47,0.9 12.62,5.31 14.31,5.98 3.47,1.37 2.49,0.94 5.97,2.26a0.05,0.05 0,1 0,0.04 -0.08Z" id="path_34"/><path fill="#263238" d="M49.54,74.98a46.1,46.1 0,0 0,-7.44 2.41,0.08 0.08,0 0,0 0.05,0.15c2.5,-0.73 5.03,-1.41 7.49,-2.27C49.83,75.21 49.73,74.95 49.54,74.98Z" id="path_35"/><path fill="#263238" d="M46.63,74a11.03,11.03 0,0 0,-0.63 1.31,3.01 3.01,0 0,0 -0.32,1.1c0,0.08 0.1,0.09 0.15,0.05a3.83,3.83 0,0 0,0.61 -1.02c0.21,-0.4 0.42,-0.8 0.62,-1.21A0.24,0.24 0,1 0,46.63 74Z" id="path_36"/><path fill="#263238" d="M46.93,71.68c0.15,-0.38 0.3,-0.75 0.46,-1.13s0.36,-0.76 0.51,-1.16c0,-0.06 0.12,0 0.1,0.05 -0.15,0.38 -0.25,0.77 -0.37,1.16s-0.25,0.77 -0.38,1.16a18.85,18.85 0,0 1,-0.84 2.13,2.7 2.7,0 0,0 1.17,-0.2 2.1,2.1 0,0 0,0.83 -1.02c0.21,-0.42 0.41,-0.85 0.63,-1.26a8.44,8.44 0,0 0,0.68 -1.42c0,-0.06 0.12,0 0.1,0.05a16.53,16.53 0,0 1,-1.3 3.01c-0.23,0.37 -0.41,0.76 -0.82,0.91a3.45,3.45 0,0 1,-1.39 0.1c-0.06,0 -0.13,0 -0.11,-0.09Q46.51,72.8 46.93,71.68Z" id="path_37"/><path fill="#263238" d="M45.9,76.44c0.87,1.84 1.63,3.67 2.44,5.51s1.53,3.61 2.26,5.43c1.46,3.68 2.76,7.43 3.91,11.21 0.56,1.87 1.09,3.76 1.56,5.67a40.75,40.75 0,0 1,1.13 5.79,15.28 15.28,0 0,1 -0.51,5.81 33.96,33.96 0,0 1,-2.15 5.41c-0.54,1.1 -0.71,0.95 -0.46,0.4 0.73,-1.58 2.64,-6.36 2.5,-10.38a29.96,29.96 0,0 0,-0.89 -5.7q-0.67,-2.89 -1.5,-5.73c-1.09,-3.74 -2.37,-7.4 -3.7,-11.06 -0.74,-2.04 -1.53,-4.07 -2.29,-6.11s-1.53,-3.91 -2.38,-6.16C45.78,76.42 45.87,76.38 45.9,76.44Z" id="path_38"/><path fill="#263238" d="M27.92,70.36c0.42,-0.16 1.02,0.1 1.45,0.17a12.37,12.37 0,0 0,1.68 0.17,12.12 12.12,0 0,0 1.67,-0.06 3.57,3.57 0,0 0,1.59 -0.42,8.11 8.11,0 0,0 2.04,-2.15 12.54,12.54 0,0 0,1.58 -2.78c0,-0.06 0.11,0 0.09,0.04 -0.18,0.56 -0.31,1.14 -0.51,1.69a10.26,10.26 0,0 1,-0.78 1.5,6.42 6.42,0 0,1 -2.11,2.39 6.28,6.28 0,0 1,-3.34 0.46,13.05 13.05,0 0,1 -1.89,-0.25c-0.45,-0.1 -1.2,-0.17 -1.49,-0.56a0.14,0.14 0,0 1,0.03 -0.21Z" id="path_39"/><path fill="#263238" d="M10.8,152.94q5.84,-8.84 11.46,-17.83T33.35,117.01a25.18,25.18 0,0 0,2.43 -4.51,7.87 7.87,0 0,0 -0.28,-5.16 87.42,87.42 0,0 0,-3.64 -9.17c-1.37,-3.01 -2.84,-5.97 -4.28,-8.94a91.95,91.95 0,0 1,-4.07 -9,15.59 15.59,0 0,1 -0.64,-9.09 26.37,26.37 0,0 1,4.29 -8.33c0.47,-0.67 0.95,-1.34 1.43,-2.04 0.04,-0.05 0.11,0 0.08,0.06a35.52,35.52 0,0 0,-5.05 8.6,14.85 14.85,0 0,0 -0.98,4.81 15.58,15.58 0,0 0,0.77 4.93,64.85 64.85,0 0,0 3.88,8.94c1.41,2.91 2.92,5.93 4.31,8.93a95.57,95.57 0,0 1,3.82 9.27,12.85 12.85,0 0,1 0.98,4.37 9.51,9.51 0,0 1,-1.63 4.51q-5.35,9.05 -10.94,17.93c-3.72,5.93 -7.54,11.86 -11.41,17.73l-1.47,2.22C10.87,153.16 10.74,153.05 10.8,152.94Z" id="path_40"/><path fill="#ffc4c0" d="M53.51,41.64c2.21,4.84 13.35,11.51 18.56,12.23 3.75,0.51 15.15,0.69 19.06,0.1 4.58,-0.7 1.08,-13.06 -1.63,-12.73 -7.44,0.87 -13.75,1.83 -15.74,1.83 -2.42,0 -15.54,-4.21 -17.12,-4.8C52.77,36.81 52.26,38.89 53.51,41.64Z" id="path_41"/><path fill="#F8688A" d="M53.58,42.92c2.79,4.13 12.07,10.89 12.07,10.89l1.29,-2.85 4.26,-9.43s-8.52,-2.67 -14.13,-3.9a12.29,12.29 0,0 0,-2.01 -0.28C51.48,37.15 51.17,39.36 53.58,42.92Z" id="path_42"/><path fill="#263238" d="M53.58,42.92c2.79,4.13 12.07,10.89 12.07,10.89l1.29,-2.85c-3.46,-4.02 -8.8,-10.11 -11.87,-13.6C51.48,37.15 51.17,39.36 53.58,42.92Z" id="path_43"/><path fill="#263238" d="M63.98,51.89c0.71,-1.74 3.86,-8.73 4.64,-10.19 0.05,-0.1 0.13,-0.09 0.09,0a102.75,102.75 0,0 1,-4.66 10.19C64.02,51.95 63.95,51.94 63.98,51.89Z" id="path_44"/><path fill="#ffc4c0" d="M88.14,41.35c4.52,-0.59 10.12,-1.6 14.86,0.41a2.55,2.55 0,0 1,1.27 1.09c2.14,0.87 2.37,2.13 2.37,2.13a4.24,4.24 0,0 1,1.81 2.75s2.51,1.02 2.12,2.66c-0.42,1.81 -3.85,0 -6.35,0.15 -5.73,0.36 -13.75,2.46 -15.41,2.72Z" id="path_45"/><path fill="#263238" d="M97.96,46.69a26.38,26.38 0,0 1,10.43 1.1,0.05 0.05,0 1,0 0.03,-0.09 19.5,19.5 0,0 0,-10.46 -1.06C97.88,46.62 97.88,46.69 97.96,46.69Z" id="path_46"/><path fill="#263238" d="M97.25,43.27a26.63,26.63 0,0 1,9.38 1.77v-0.03a17.53,17.53 0,0 0,-9.39 -1.82C97.15,43.19 97.14,43.26 97.25,43.27Z" id="path_47"/><path fill="#263238" d="M96.9,41.4a27.37,27.37 0,0 1,7.36 1.44v-0.03a16.78,16.78 0,0 0,-7.37 -1.53C96.79,41.31 96.79,41.4 96.9,41.4Z" id="path_48"/><path fill="#ffc4c0" d="M97.35,51.4c-0.73,0.34 -0.55,0.72 0.84,1.04s7.17,0.42 6.97,2.43 -8.36,1.76 -10.64,1.05a38.24,38.24 0,0 1,-5.7 -2.67C90.43,52.99 94.22,51.97 97.35,51.4Z" id="path_49"/><path fill="#263238" d="M59.57,49.35c-0.04,0.87 -0.12,1.76 -0.24,2.64a0.11,0.11 0,0 1,0.04 -0.1c0.17,-0.46 0.34,-0.93 0.54,-1.37h0.05a7.34,7.34 0,0 1,-0.44 1.42c-0.09,0.22 -0.18,0.43 -0.28,0.65 -0.06,0.39 -0.13,0.78 -0.21,1.17 -0.15,0.73 -0.84,3.83 -1.02,4.35 -0.03,0.11 -0.16,0.08 -0.15,-0.04 0.04,-0.57 0.61,-3.8 0.73,-4.53a39.58,39.58 0,0 1,0.91 -4.2C59.52,49.3 59.57,49.32 59.57,49.35Z" id="path_50"/><path fill="#F8688A" d="M54.27,72.51c-1.36,0.7 -3.11,1.78 -11.01,0.23 -0.51,-0.1 -0.99,-0.22 -1.49,-0.37 -7.4,-2.22 -16.3,-10.93 -16.78,-11.54 0,0 11.76,-19.07 26.8,-25.06 1.86,-0.74 4.94,0.69 6.62,2.46 0.61,0.64 1.92,5.32 1.42,9.11S55.62,71.81 54.27,72.51Z" id="path_51"/><path fill="#fff" d="M53.21,47.16a5.78,5.78 0,0 1,-0.33 2.37A5.53,5.53 0,0 1,53.21 47.16Z" id="path_52"/><path fill="#fff" d="M48.08,60.15a5.26,5.26 0,0 1,-0.04 1.2,4.99 4.99,0 0,1 -0.29,1.17 5.02,5.02 0,0 1,0.04 -1.21A5.28,5.28 0,0 1,48.08 60.15Z" id="path_53"/><path fill="#fff" d="M39.36,50.33a5.78,5.78 0,0 1,-0.33 2.38A5.57,5.57 0,0 1,39.36 50.33Z" id="path_54"/><path fill="#fff" d="M56.57,59.48a5.29,5.29 0,0 1,-0.04 1.21,4.99 4.99,0 0,1 -0.29,1.17 5.02,5.02 0,0 1,0.04 -1.21A5.26,5.26 0,0 1,56.57 59.48Z" id="path_55"/><path fill="#fff" d="M45.38,48.65a5.26,5.26 0,0 1,1.2 0.04,5.01 5.01,0 0,1 1.17,0.3A5.74,5.74 0,0 1,45.38 48.65Z" id="path_56"/><path fill="#fff" d="M35.48,58.03a5.78,5.78 0,0 1,2.37 0.33A5.53,5.53 0,0 1,35.48 58.03Z" id="path_57"/><path fill="#fff" d="M47.14,68.18a5.74,5.74 0,0 1,2.37 0.33A5.56,5.56 0,0 1,47.14 68.18Z" id="path_58"/><path fill="#fff" d="M32.43,64.49a5.78,5.78 0,0 1,2.37 0.33A5.56,5.56 0,0 1,32.43 64.49Z" id="path_59"/><path fill="#fff" d="M53.13,38.03a5.78,5.78 0,0 1,2.37 0.33A5.78,5.78 0,0 1,53.13 38.03Z" id="path_60"/><path fill="#fff" d="M50.26,41.28a4.97,4.97 0,0 1,-0.88 0.82,5.41 5.41,0 0,1 -1.02,0.62 5.18,5.18 0,0 1,0.87 -0.82A5.37,5.37 0,0 1,50.26 41.28Z" id="path_61"/><path fill="#fff" d="M34.57,50.52a5.15,5.15 0,0 1,-0.88 0.82,4.8 4.8,0 0,1 -1.02,0.62 5.36,5.36 0,0 1,0.88 -0.82A4.93,4.93 0,0 1,34.57 50.52Z" id="path_62"/><path fill="#fff" d="M54.16,54.68a5.18,5.18 0,0 1,-0.88 0.82,4.93 4.93,0 0,1 -1.02,0.62 5.18,5.18 0,0 1,0.88 -0.82A5.26,5.26 0,0 1,54.16 54.68Z" id="path_63"/><path fill="#fff" d="M41.47,62.67a5.18,5.18 0,0 1,-0.88 0.82,5.02 5.02,0 0,1 -1.02,0.62 5.18,5.18 0,0 1,0.88 -0.82A5.26,5.26 0,0 1,41.47 62.67Z" id="path_64"/><path fill="#fff" d="M59.02,43.77a5.18,5.18 0,0 1,-0.88 0.82,5.41 5.41,0 0,1 -1.02,0.62 5.18,5.18 0,0 1,0.88 -0.82A5.02,5.02 0,0 1,59.02 43.77Z" id="path_65"/><path fill="#fff" d="M58.75,53.03a5.18,5.18 0,0 1,-0.82 -0.88,4.89 4.89,0 0,1 -0.62,-1.02 4.97,4.97 0,0 1,0.82 0.88A5.57,5.57 0,0 1,58.75 53.03Z" id="path_66"/><path fill="#fff" d="M30.48,59.41a5.18,5.18 0,0 1,-0.82 -0.88,5.26 5.26,0 0,1 -0.62,-1.02 5.18,5.18 0,0 1,0.82 0.88,5.02 5.02,0 0,1 0.62,1.02Z" id="path_67"/><path fill="#fff" d="M55.31,66.99a4.97,4.97 0,0 1,-0.82 -0.88,5.41 5.41,0 0,1 -0.62,-1.02 5.18,5.18 0,0 1,0.82 0.88A5.12,5.12 0,0 1,55.31 66.99Z" id="path_68"/><path fill="#fff" d="M42.87,45.37a5.15,5.15 0,0 1,-0.82 -0.88,5.57 5.57,0 0,1 -0.62,-1.02 4.97,4.97 0,0 1,0.82 0.88A5.57,5.57 0,0 1,42.87 45.37Z" id="path_69"/><path fill="#fff" d="M43.09,71.31a5.18,5.18 0,0 1,-0.82 -0.88A5.37,5.37 0,0 1,41.64 69.41a4.97,4.97 0,0 1,0.82 0.88A5.31,5.31 0,0 1,43.09 71.31Z" id="path_70"/><path fill="#fff" d="M45.2,56.01a5.36,5.36 0,0 1,-0.82 -0.88,4.8 4.8,0 0,1 -0.62,-1.02 5.15,5.15 0,0 1,0.82 0.88A4.93,4.93 0,0 1,45.2 56.01Z" id="path_71"/><path fill="#ffc4c0" d="M55.66,43.31c-1.92,-0.36 -3.72,-4.32 -3.95,-6.99 0,-0.18 0.9,-1.63 1.92,-3.45 0.62,-1.11 1.28,-2.35 1.8,-3.54 0.11,-0.24 0.73,0.57 0.73,0.57l1.37,1.02 4.51,3.46a20.55,20.55 0,0 0,-2.71 4.21,2.55 2.55,0 0,0 -0.16,0.51 0.61,0.61 0,0 0,0 0.09C58.88,40.19 57.51,43.65 55.66,43.31Z" id="path_72"/><path fill="#263238" d="M59.16,39.12a0.62,0.62 0,0 0,0 0.09,5.05 5.05,0 0,1 -0.78,-0.3c-4.94,-2.31 -2.76,-8.92 -2.76,-8.92l1.94,0.96 4.51,3.46a20.55,20.55 0,0 0,-2.71 4.21A2.55,2.55 0,0 0,59.16 39.12Z" id="path_73"/><path fill="#263238" d="M67.22,20.3a5.15,5.15 0,0 1,2.27 3.98,10.61 10.61,0 0,1 -1.23,5.13C68.04,29.5 67.22,20.3 67.22,20.3Z" id="path_74"/><path fill="#ffc4c0" d="M56.02,21.62c-1.36,2.67 -1.28,11.1 0.41,13.27 2.45,3.15 7.18,4.23 10.04,1.12 2.77,-3.02 2.48,-14 0.51,-16.05C64.11,16.95 58.03,17.66 56.02,21.62Z" id="path_75"/><path fill="#00000000" stroke-width="1" d="M56.24,34.77h0" stroke-linejoin="round" stroke="#f5a79e" stroke-linecap="round" id="path_76"/><path fill="#263238" d="M63.22,28.37s-0.05,0.03 -0.04,0.05c0.03,0.58 -0.03,1.24 -0.55,1.44v0.03C63.26,29.79 63.33,28.91 63.22,28.37Z" id="path_77"/><path fill="#263238" d="M62.69,27.79c-0.93,-0.05 -0.96,1.8 -0.1,1.85S63.46,27.83 62.69,27.79Z" id="path_78"/><path fill="#263238" d="M66.36,28.35a0.05,0.05 0,0 1,0.05 0.05c-0.03,0.58 0.04,1.24 0.56,1.44v0.03C66.32,29.77 66.24,28.89 66.36,28.35Z" id="path_79"/><path fill="#263238" d="M66.88,27.76c0.92,-0.06 0.97,1.8 0.11,1.85S66.11,27.81 66.88,27.76Z" id="path_80"/><path fill="#263238" d="M62.11,26.37a7.46,7.46 0,0 0,0.72 -0.24,1.22 1.22,0 0,0 0.69,-0.39 0.39,0.39 0,0 0,-0.06 -0.47,0.97 0.97,0 0,0 -0.98,-0.12 1.44,1.44 0,0 0,-0.83 0.61,0.42 0.42,0 0,0 0.46,0.62Z" id="path_81"/><path fill="#263238" d="M67.51,27.19a7.46,7.46 0,0 1,-0.73 -0.2,1.22 1.22,0 0,1 -0.71,-0.35 0.38,0.38 0,0 1,0.03 -0.47,0.96 0.96,0 0,1 0.97,-0.17 1.43,1.43 0,0 1,0.87 0.56,0.42 0.42,0 0,1 -0.42,0.64Z" id="path_82"/><path fill="#263238" d="M61.91,33.82c0.14,0.14 0.27,0.32 0.48,0.34a1.53,1.53 0,0 0,0.62 -0.13s0.04,0 0,0.03a0.77,0.77 0,0 1,-0.73 0.3,0.62 0.62,0 0,1 -0.45,-0.51 0.04,0.04 0,0 1,0.08 -0.03Z" id="path_83"/><path fill="#263238" d="M65.24,31.36s0.03,0.86 0,1.26a8.39,8.39 0,0 0,-2.35 0.08c-0.18,0.04 -0.16,-0.11 0.05,-0.2a3.44,3.44 0,0 1,2 -0.26c0.04,-0.11 -0.07,-1.32 0,-1.32a3.4,3.4 0,0 1,0.89 0.31c0,-1.79 -0.28,-3.57 -0.26,-5.36a0.05,0.05 0,0 1,0.11 0,28.85 28.85,0 0,1 0.51,5.76C66.18,31.84 65.39,31.44 65.24,31.36Z" id="path_84"/><path fill="#263238" d="M64.09,32.31a2.55,2.55 0,0 1,-1.07 1.28c-0.77,0.31 -1.02,-0.39 -0.24,-1.02A2.49,2.49 0,0 1,64.09 32.31Z" id="path_85"/><path fill="#ff99ba" d="M63.3,33.43a1.02,1.02 0,0 1,-0.27 0.16c-0.71,0.28 -0.99,-0.28 -0.42,-0.85C62.99,32.77 63.44,32.91 63.3,33.43Z" id="path_86"/><path fill="#263238" d="M55.64,28.83c0.93,0.28 2,-2.52 2.31,-3.57 0.26,-0.95 0.57,-3.96 0.62,-4.17s4.07,2.66 6.41,1.98 3.92,-2.8 3.95,-3.78 -2.88,-3.48 -5.4,-3.61 -5.94,3.06 -5.94,3.06a11.72,11.72 0,0 0,1.12 -1.5,2.77 2.77,0 0,0 -1.97,1.7s0.33,-1.46 0.2,-1.49 -1.39,1.22 -1.11,2.17a4.96,4.96 0,0 0,-1.6 2.66C54.09,23.69 54.54,28.49 55.64,28.83Z" id="path_87"/><path fill="#263238" d="M66.64,22.55a7.75,7.75 0,0 1,-2.22 0.8,5.26 5.26,0 0,1 -2.55,-0.41 7.82,7.82 0,0 1,-2.22 -1.31c-0.59,-0.48 -1.11,-1.07 -1.74,-1.49 -0.16,-0.11 -0.34,0.12 -0.24,0.26a8.41,8.41 0,0 0,4.26 3.14,4.85 4.85,0 0,0 4.7,-0.96S66.65,22.55 66.64,22.55Z" id="path_88"/><path fill="#ffc4c0" d="M56.61,28.58s-1.45,-2.93 -2.75,-2.46 -0.51,4.53 0.83,5.28a1.45,1.45 0,0 0,2.04 -0.48Z" id="path_89"/><path fill="#263238" d="M54.12,27.28s-0.03,0 0,0.04a3.64,3.64 0,0 1,1.53 2.55,0.8 0.8,0 0,0 -1.15,-0.4c-0.03,0 0,0.06 0,0.06a0.89,0.89 0,0 1,0.92 0.46,4.3 4.3,0 0,1 0.35,0.86c0.03,0.1 0.2,0.07 0.18,-0.04h0C56.16,29.53 55.45,27.61 54.12,27.28Z" id="path_90"/><path fill="#ffc4c0" d="M47.06,41.68c-1.02,5.77 5.24,25.21 9.24,28.84 5.97,5.4 16.99,8.95 20.99,10.11 1.74,0.51 6.56,-11.75 4.8,-12.56 -3.77,-1.72 -15.5,-5.38 -16.61,-6.3s-7.84,-10.63 -10.83,-16.22C50.63,38.02 47.56,38.76 47.06,41.68Z" id="path_91"/><path fill="#ffc4c0" d="M79.12,66.99s5.21,1.33 8.56,2.35c1.87,0.58 5,1.84 6.19,2.89 1.77,1.57 8.18,9.27 6.35,10.87 -1.66,1.45 -6.33,-5.87 -6.33,-5.87s5.36,6.97 3.06,8.34 -6.51,-7.6 -6.51,-7.6 5.34,7.28 2.73,8.32c-1.98,0.78 -6.21,-7.13 -6.21,-7.13s4.55,6.29 2.55,7.18c-2.21,0.99 -6.58,-6.07 -6.58,-6.07 -5.46,1.41 -8.66,-0.15 -10.76,-1.53C71.66,78.41 79.12,66.99 79.12,66.99Z" id="path_92"/><path fill="#263238" d="M92.19,74.7c0.66,0.8 1.34,1.6 1.92,2.45s1.14,1.73 1.64,2.63a17.63,17.63 0,0 1,1.63 3.7,37.91 37.91,0 0,0 -3.52,-6.17c-0.59,-0.85 -1.13,-1.73 -1.71,-2.58C92.15,74.7 92.17,74.68 92.19,74.7Z" id="path_93"/><path fill="#263238" d="M89.08,76.77a21.79,21.79 0,0 1,4.41 6.46c0.04,0.09 0,0.09 -0.07,0 -0.71,-1.11 -3.61,-5.38 -4.37,-6.45C89.04,76.77 89.07,76.75 89.08,76.77Z" id="path_94"/><path fill="#263238" d="M86.09,78.07a15.96,15.96 0,0 1,3.27 5.09c0.04,0.09 -0.04,0.08 -0.09,0 -1.05,-1.72 -1.87,-3.06 -3.23,-5.05C86.01,78.07 86.06,78.02 86.09,78.07Z" id="path_95"/><path fill="#F8688A" d="M52.74,42.1c-4.65,-6.58 -7.43,-4.14 -6.5,3a115.23,115.23 0,0 0,3.21 14.63L61.17,54.05S55.7,46.31 52.74,42.1Z" id="path_96"/><path fill="#fff" d="M55.57,44.69a5.24,5.24 0,0 1,0.33 1.16,5.29 5.29,0 0,1 0.08,1.21 5.27,5.27 0,0 1,-0.33 -1.16A4.98,4.98 0,0 1,55.57 44.69Z" id="path_97"/><path fill="#fff" d="M48.63,48.69a5.6,5.6 0,0 1,2.36 -0.41,5.23 5.23,0 0,1 -1.16,0.33A4.99,4.99 0,0 1,48.63 48.69Z" id="path_98"/><path fill="#fff" d="M48.92,38.46a5.68,5.68 0,0 1,-1.38 1.96A5.68,5.68 0,0 1,48.92 38.46Z" id="path_99"/><path fill="#fff" d="M58.85,51.76a5.32,5.32 0,0 1,-0.59 1.05,5.15 5.15,0 0,1 -0.8,0.91 5.68,5.68 0,0 1,1.38 -1.96Z" id="path_100"/><path fill="#fff" d="M50.7,55.75a5.68,5.68 0,0 1,-1.96 -1.38,5.68 5.68,0 0,1 1.96,1.38Z" id="path_101"/><path fill="#263238" d="M54.27,44.09c0.63,0.86 1.27,1.7 1.91,2.55q-0.24,-0.64 -0.43,-1.3h0.03c0.13,0.34 0.28,0.67 0.4,1.02l0.18,0.51a0.91,0.91 0,0 1,0.04 0.11c0.51,0.66 1.02,1.31 1.49,1.99 0.58,0.8 1.13,1.62 1.69,2.43s1.13,1.83 1.73,2.65c0.06,0.07 -1.02,0.51 -1.14,0.56s-0.18,-0.04 -0.07,-0.08 0.97,-0.56 0.98,-0.57c-0.56,-0.82 -1.21,-1.58 -1.79,-2.38s-1.17,-1.6 -1.73,-2.41c-1.15,-1.65 -2.2,-3.36 -3.34,-5.02Z" id="path_102"/><path fill="#263238" d="M46.52,49.83a10.95,10.95 0,0 1,0.51 1.04l0.19,0.44c-0.27,-1.27 -0.51,-2.55 -0.79,-3.82h0c0.54,2.04 1.09,4.12 1.58,6.19 0.47,1.98 1.05,3.97 1.32,5.99a6.65,6.65 0,0 1,1.1 -0.37,5.43 5.43,0 0,1 -1.21,0.59 63.58,63.58 0,0 1,-1.53 -6.24c-0.13,-0.57 -0.25,-1.14 -0.37,-1.71 -0.13,-0.35 -0.29,-0.68 -0.45,-1.02s-0.3,-0.72 -0.44,-1.09C46.47,49.83 46.51,49.81 46.52,49.83Z" id="path_103"/><path fill="#263238" d="M49.63,57.77c1.63,-0.92 8.44,-4.44 9.96,-5.09 0.11,-0.05 0.16,0 0.06,0.07a102.67,102.67 0,0 1,-9.98 5.09C49.62,57.85 49.58,57.8 49.63,57.77Z" id="path_104"/><path fill="#F8688A" d="M236.27,191.68L81.08,191.68L103.52,64.42L258.71,64.42Z" id="path_105"/><path fill="#F8688A" d="M156.64,51.24L105.85,51.24L103.52,64.42h54.35Z" id="path_106"/><path fill="#000000FF" d="M236.27,191.68L81.08,191.68L103.52,64.42L258.71,64.42Z" stroke-opacity="0.1" fill-opacity="0.1" id="path_107"/><path fill="#000000FF" d="M156.64,51.24L105.85,51.24L103.52,64.42h54.35Z" stroke-opacity="0.1" fill-opacity="0.1" id="path_108"/><path fill="#263238" d="M100.37,56.61a9.76,9.76 0,0 1,0 -4.43A9.76,9.76 0,0 1,100.37 56.61Z" id="path_109"/><path fill="#263238" d="M95.85,57.92a8.66,8.66 0,0 1,-1.33 -1.79,8.84 8.84,0 0,1 -0.89,-2.04 8.44,8.44 0,0 1,1.33 1.79A8.97,8.97 0,0 1,95.85 57.92Z" id="path_110"/><path fill="#263238" d="M92.59,61.31a9.77,9.77 0,0 1,-3.84 -2.22,8.74 8.74,0 0,1 2.04,0.89 8.95,8.95 0,0 1,1.8 1.33Z" id="path_111"/><path fill="#263238" d="M91.45,65.87a9.77,9.77 0,0 1,-4.43 0A9.76,9.76 0,0 1,91.45 65.87Z" id="path_112"/><path fill="#263238" d="M92.78,70.38a8.98,8.98 0,0 1,-1.79 1.33,8.74 8.74,0 0,1 -2.04,0.89 8.66,8.66 0,0 1,1.79 -1.33A8.56,8.56 0,0 1,92.78 70.38Z" id="path_113"/><path fill="#263238" d="M96.16,73.64a9.74,9.74 0,0 1,-2.22 3.84,8.57 8.57,0 0,1 0.89,-2.04A8.82,8.82 0,0 1,96.16 73.64Z" id="path_114"/><path fill="#263238" d="M100.72,74.76a8.89,8.89 0,0 1,0.25 2.22,8.66 8.66,0 0,1 -0.25,2.22 8.44,8.44 0,0 1,-0.25 -2.22A8.89,8.89 0,0 1,100.72 74.76Z" id="path_115"/><path fill="#263238" d="M105.24,73.49a8.66,8.66 0,0 1,1.33 1.79,8.56 8.56,0 0,1 0.89,2.04 9.74,9.74 0,0 1,-2.22 -3.84Z" id="path_116"/><path fill="#263238" d="M108.49,70.07a8.56,8.56 0,0 1,2.04 0.89,8.66 8.66,0 0,1 1.79,1.33 8.56,8.56 0,0 1,-2.04 -0.89,8.66 8.66,0 0,1 -1.79,-1.33Z" id="path_117"/><path fill="#263238" d="M109.62,65.51a9.79,9.79 0,0 1,4.44 0A9.79,9.79 0,0 1,109.62 65.51Z" id="path_118"/><path fill="#263238" d="M108.31,61a8.82,8.82 0,0 1,1.79 -1.32,8.37 8.37,0 0,1 2.04,-0.89 9.74,9.74 0,0 1,-3.84 2.22Z" id="path_119"/><path fill="#263238" d="M104.93,57.74a8.95,8.95 0,0 1,0.89 -2.04,8.66 8.66,0 0,1 1.33,-1.79 8.56,8.56 0,0 1,-0.89 2.04,8.66 8.66,0 0,1 -1.33,1.79Z" id="path_120"/><path fill="#F8688A" d="M236.05,191.68L80.52,191.68L58.44,69.04L213.96,69.04Z" id="path_121"/><path fill="#263238" d="M112.33,137.55m-6.46,0a6.46,6.46 0,1 1,12.93 0a6.46,6.46 0,1 1,-12.93 0" id="path_122"/><path fill="#263238" d="M163.43,137.55m-6.46,0a6.46,6.46 0,1 1,12.93 0a6.46,6.46 0,1 1,-12.93 0" id="path_123"/><path fill="#263238" d="M147.17,145.05l-0.36,-0.68c-0.03,-0.06 -3.37,-6.24 -10.09,-6.24 -6.11,0 -7.64,5.81 -7.68,6.06l-0.18,0.74 -1.48,-0.36 0.18,-0.74c0,-0.07 1.82,-7.23 9.17,-7.23 7.64,0 11.29,6.76 11.44,7.05l0.36,0.67Z" id="path_124"/><path fill="#263238" d="M225.78,137.05l-0.11,-0.51c0.33,-0.07 0.66,-0.15 0.98,-0.23l0.13,0.51C226.43,136.91 226.11,136.98 225.78,137.05Z" id="path_125"/><path fill="#263238" d="M228.75,136.23l-0.16,-0.48c0.64,-0.22 1.27,-0.46 1.89,-0.72l0.2,0.47C230.05,135.77 229.4,136.02 228.75,136.23ZM232.55,134.61 L232.32,134.16a20.19,20.19 0,0 0,1.76 -1.02l0.26,0.43A13.02,13.02 0,0 1,232.54 134.61ZM236.05,132.45 L235.75,132.04c0.55,-0.4 1.08,-0.82 1.58,-1.26l0.34,0.38c-0.54,0.46 -1.04,0.9 -1.62,1.31ZM239.15,129.74 L238.78,129.39c0.47,-0.51 0.91,-1.02 1.32,-1.53l0.4,0.31c-0.42,0.56 -0.88,1.09 -1.34,1.59ZM241.67,126.48 L241.24,126.21a14.81,14.81 0,0 0,0.94 -1.77l0.47,0.21a17.2,17.2 0,0 1,-0.98 1.85ZM243.36,122.7 L242.85,122.56a13.31,13.31 0,0 0,0.41 -1.95l0.51,0.07a13.07,13.07 0,0 1,-0.42 2.05ZM243.92,118.63h-0.51v-0.15c0,-0.62 -0.04,-1.24 -0.1,-1.86l0.51,-0.05a18.44,18.44 0,0 1,0.1 1.91ZM243.01,114.64a19.99,19.99 0,0 0,-0.51 -1.95l0.51,-0.15a17.03,17.03 0,0 1,0.51 1.99ZM241.8,110.81c-0.24,-0.6 -0.51,-1.22 -0.83,-1.84l0.46,-0.23c0.31,0.63 0.6,1.26 0.85,1.87ZM240.02,107.17c-0.32,-0.56 -0.66,-1.14 -1.02,-1.74l0.43,-0.27c0.37,0.61 0.72,1.2 1.02,1.76ZM237.89,103.72c-0.37,-0.56 -0.75,-1.13 -1.14,-1.69l0.42,-0.28c0.39,0.56 0.76,1.13 1.14,1.7ZM235.6,100.35c-0.38,-0.56 -0.77,-1.13 -1.15,-1.69l0.42,-0.28c0.38,0.56 0.76,1.13 1.14,1.68ZM233.32,96.95c-0.37,-0.57 -0.73,-1.15 -1.09,-1.73l0.43,-0.26c0.36,0.58 0.72,1.15 1.09,1.72ZM231.2,93.45c-0.35,-0.62 -0.67,-1.23 -0.96,-1.81l0.46,-0.23c0.28,0.58 0.61,1.18 0.94,1.79ZM229.39,89.79c-0.27,-0.64 -0.51,-1.28 -0.73,-1.91l0.51,-0.16c0.21,0.62 0.45,1.25 0.72,1.88ZM228.06,85.9c-0.17,-0.66 -0.32,-1.34 -0.43,-2.04l0.51,-0.08c0.11,0.65 0.25,1.31 0.42,1.97ZM227.38,81.83c-0.05,-0.63 -0.08,-1.26 -0.08,-1.89v-0.17h0.51v0.16a14.94,14.94 0,0 0,0.08 1.85ZM227.89,77.75 L227.38,77.7c0,-0.14 0.03,-0.28 0.04,-0.43 0.06,-0.55 0.14,-1.09 0.23,-1.61l0.51,0.09c-0.09,0.51 -0.16,1.04 -0.22,1.58a1.05,1.05 0,0 1,-0.02 0.44ZM228.6,73.79 L228.09,73.65c0.19,-0.67 0.41,-1.33 0.65,-1.96l0.47,0.18a18.64,18.64 0,0 0,-0.59 1.92ZM253.99,70.82a6.37,6.37 0,0 1,-0.87 -0.08c-0.4,-0.06 -0.8,-0.12 -1.19,-0.2l0.1,-0.51c0.38,0.07 0.77,0.14 1.16,0.19 0.28,0.04 0.56,0.06 0.82,0.08ZM256.08,70.66 L255.98,70.15a5.88,5.88 0,0 0,1.81 -0.7l0.26,0.43a6.34,6.34 0,0 1,-1.95 0.8ZM230.08,70.05 L229.62,69.81a18.06,18.06 0,0 1,1.08 -1.76l0.42,0.29a16.64,16.64 0,0 0,-1.01 1.73ZM249.94,70.02a19.62,19.62 0,0 1,-1.94 -0.73l0.21,-0.47a17.36,17.36 0,0 0,1.88 0.71ZM259.62,68.43 L259.2,68.15a3.56,3.56 0,0 0,0.62 -1.78l0.51,0.04a4.07,4.07 0,0 1,-0.69 2.04ZM246.17,68.36a18.69,18.69 0,0 1,-1.73 -1.14l0.3,-0.41a17.97,17.97 0,0 0,1.68 1.1ZM232.37,66.77 L231.99,66.43a17.24,17.24 0,0 1,1.47 -1.45l0.34,0.38a17.02,17.02 0,0 0,-1.42 1.43ZM242.86,65.91a18.85,18.85 0,0 1,-1.44 -1.48l0.38,-0.34a18.76,18.76 0,0 0,1.4 1.44ZM259.44,64.53a4.98,4.98 0,0 0,-1.19 -1.53l0.34,-0.38a5.5,5.5 0,0 1,1.31 1.68ZM235.39,64.13 L235.1,63.71a19.67,19.67 0,0 1,1.77 -1.08l0.24,0.45a19.24,19.24 0,0 0,-1.7 1.06ZM240.14,62.8c-0.19,-0.28 -0.38,-0.56 -0.56,-0.85l-0.66,0.26 -0.19,-0.47 0.59,-0.23c-0.09,-0.15 -0.18,-0.31 -0.27,-0.46l0.44,-0.25c0.1,0.18 0.2,0.36 0.31,0.51q0.43,-0.15 0.87,-0.29l0.15,0.51c-0.25,0.08 -0.51,0.16 -0.74,0.24a6.19,6.19 0,0 0,0.51 0.73ZM256.61,61.93a10.85,10.85 0,0 0,-1.53 -0.62l-0.34,-0.11 0.15,-0.51 0.35,0.11a11,11 0,0 1,1.59 0.65ZM242.77,61.02 L242.66,60.51c0.66,-0.15 1.34,-0.27 2.04,-0.37l0.08,0.51c-0.67,0.11 -1.34,0.23 -1.99,0.38ZM252.8,60.74c-0.64,-0.11 -1.31,-0.2 -2,-0.26l0.04,-0.51c0.71,0.06 1.4,0.15 2.04,0.26ZM246.77,60.44 L246.73,59.93c0.61,-0.04 1.21,-0.06 1.81,-0.06h0.25v0.51h-0.24c-0.58,0.01 -1.18,0.03 -1.77,0.07ZM238.16,59.22c-0.28,-0.62 -0.51,-1.27 -0.74,-1.92l0.51,-0.16c0.21,0.64 0.45,1.27 0.72,1.88ZM236.87,55.31c-0.15,-0.66 -0.28,-1.34 -0.38,-2.04l0.51,-0.07c0.1,0.67 0.22,1.34 0.37,1.99ZM236.3,51.24c-0.03,-0.46 -0.04,-0.93 -0.04,-1.4v-0.66h0.51v0.65c0,0.46 0,0.92 0.04,1.37ZM236.91,47.16 L236.4,47.11c0.07,-0.67 0.17,-1.36 0.28,-2.04l0.51,0.09a19.39,19.39 0,0 0,-0.3 2.01ZM237.61,43.18 L237.1,43.06c0.16,-0.66 0.35,-1.32 0.56,-1.98l0.51,0.16c-0.23,0.67 -0.42,1.31 -0.58,1.96ZM238.83,39.33 L238.35,39.14c0.25,-0.64 0.51,-1.27 0.82,-1.89l0.46,0.22a19.95,19.95 0,0 0,-0.82 1.88ZM240.58,35.7 L240.14,35.44c0.35,-0.59 0.72,-1.17 1.11,-1.73l0.42,0.29c-0.4,0.56 -0.76,1.13 -1.1,1.71ZM242.88,32.38 L242.48,32.06c0.43,-0.51 0.89,-1.05 1.36,-1.53l0.37,0.35a18.73,18.73 0,0 0,-1.35 1.51ZM245.65,29.45 L245.31,29.07c0.51,-0.45 1.02,-0.9 1.56,-1.34l0.32,0.4c-0.55,0.43 -1.07,0.88 -1.55,1.32ZM248.81,26.93 L248.52,26.51c0.56,-0.38 1.14,-0.76 1.73,-1.12l0.26,0.43c-0.59,0.36 -1.14,0.73 -1.71,1.12ZM252.27,24.83 L252.03,24.38c0.6,-0.32 1.22,-0.63 1.84,-0.91l0.21,0.46c-0.65,0.29 -1.24,0.6 -1.83,0.91ZM255.96,23.14 L255.77,22.66c0.64,-0.25 1.29,-0.51 1.93,-0.7l0.16,0.51c-0.65,0.19 -1.29,0.43 -1.92,0.68Z" id="path_126"/><path fill="#263238" d="M259.87,21.84l-0.13,-0.51c0.63,-0.16 1.02,-0.23 1.02,-0.23l0.09,0.51S260.48,21.69 259.87,21.84Z" id="path_127"/><path fill="#263238" d="M268.87,18.56c-1.3,-4.02 -10,-2.58 -8.3,2.68S270.17,22.58 268.87,18.56Z" id="path_128"/><path fill="#ebebeb" d="M255.84,16.95c0.07,-1.77 2.52,-3.13 6,-2.5a19.38,19.38 0,0 1,6.74 2.97,19.69 19.69,0 0,1 -6.94,2.46C258.13,20.26 255.77,18.7 255.84,16.95Z" id="path_129"/><path fill="#263238" d="M268.57,17.4c-1.8,0 -3.6,-0.05 -5.4,-0.11s-3.6,-0.15 -5.4,-0.29c1.8,0 3.61,0.05 5.4,0.1S266.78,17.26 268.57,17.4Z" id="path_130"/><path fill="#263238" d="M259.33,15.37a15.15,15.15 0,0 1,2.88 1.8,13.57 13.57,0 0,1 -1.49,-0.81 14.59,14.59 0,0 1,-1.39 -0.98Z" id="path_131"/><path fill="#263238" d="M264.05,17.24A16.54,16.54 0,0 1,261.07 19.17a16.54,16.54 0,0 1,3 -1.92Z" id="path_132"/><path fill="#263238" d="M264.57,16.24a3.69,3.69 0,0 1,1.31 1.06,3.49 3.49,0 0,1 -0.72,-0.45 3.73,3.73 0,0 1,-0.6 -0.61Z" id="path_133"/><path fill="#ebebeb" d="M259.15,27.41c1.09,1.4 3.87,1.06 6.32,-1.48a19.6,19.6 0,0 0,3.75 -6.35,19.63 19.63,0 0,0 -7.07,2.04C259.08,23.35 258.06,26.01 259.15,27.41Z" id="path_134"/><path fill="#263238" d="M269.22,19.58c-1.47,1.02 -2.89,2.15 -4.32,3.24s-2.83,2.23 -4.2,3.39c1.47,-1.02 2.89,-2.14 4.32,-3.24S267.83,20.76 269.22,19.58Z" id="path_135"/><path fill="#263238" d="M262.89,26.62a14.53,14.53 0,0 0,0.73 -1.53,13.61 13.61,0 0,0 0.55,-1.61 14.16,14.16 0,0 0,-0.73 1.53A14.53,14.53 0,0 0,262.89 26.62Z" id="path_136"/><path fill="#263238" d="M265.65,22.37a16.84,16.84 0,0 0,-3.57 0.19,14.88 14.88,0 0,0 1.78,0A15.84,15.84 0,0 0,265.65 22.37Z" id="path_137"/><path fill="#263238" d="M266.64,22.87a3.64,3.64 0,0 0,0.32 -0.8,3.82 3.82,0 0,0 0.13,-0.84A3.8,3.8 0,0 0,266.64 22.87Z" id="path_138"/><path fill="#455a64" d="M268.87,18.56a1.53,1.53 0,1 1,0.98 -1.92A1.53,1.53 0,0 1,268.87 18.56Z" id="path_139"/><path fill="#455a64" d="M269.81,21.47a1.53,1.53 0,1 1,0.98 -1.92A1.53,1.53 0,0 1,269.81 21.47Z" id="path_140"/><path fill="#fff" d="M102.82,20.17a12.69,12.69 0,0 1,-21.21 8.03L75.25,29.13l3.18,-5.49a12.69,12.69 0,1 1,24.38 -3.47Z" id="path_141"/><path fill="#263238" d="M102.82,20.17a12.73,12.73 0,0 1,-2.55 6.43,11.26 11.26,0 0,1 -2.49,2.46 12.36,12.36 0,0 1,-3.06 1.71,12.49 12.49,0 0,1 -3.42,0.81 12.73,12.73 0,0 1,-1.76 0.04,11.3 11.3,0 0,1 -1.76,-0.18 12.82,12.82 0,0 1,-6.28 -3.1l0.15,0.05 -6.34,0.97 -0.46,0.07 0.23,-0.41 3.16,-5.5v0.22a12.83,12.83 0,0 1,0.78 -11.31A12.76,12.76 0,0 1,99.05 9.66,12.73 12.73,0 0,1 102.82,20.17ZM102.82,20.17a12.56,12.56 0,0 0,-14.4 -13.75,12.42 12.42,0 0,0 -5.24,2.07 13.09,13.09 0,0 0,-3.8 4.15,12.54 12.54,0 0,0 -1.62,5.37 12.67,12.67 0,0 0,0.9 5.57l0.05,0.11 -0.06,0.11L75.45,29.27l-0.22,-0.34 6.36,-0.89h0.09l0.06,0.06a12.51,12.51 0,0 0,6.08 3.11,10.81 10.81,0 0,0 1.72,0.21 12.36,12.36 0,0 0,1.74 0,12.73 12.73,0 0,0 3.39,-0.75 11.94,11.94 0,0 0,3.06 -1.65,11.6 11.6,0 0,0 2.5,-2.43A12.73,12.73 0,0 0,102.82 20.17Z" id="path_142"/><path fill="#F8688A" d="M83.99,24.77a1.23,1.23 0,0 1,1.24 -1.3,1.3 1.3,0 0,1 0,2.61 1.23,1.23 0,0 1,-1.24 -1.3ZM84.49,21.76 L84.19,11.65h2.04l-0.3,10.11Z" id="path_143"/><path fill="#F8688A" d="M88.83,24.77a1.23,1.23 0,0 1,1.24 -1.3,1.3 1.3,0 0,1 0,2.61 1.23,1.23 0,0 1,-1.24 -1.3ZM89.34,21.76 L89.06,11.65h2.04l-0.3,10.11Z" id="path_144"/><path fill="#F8688A" d="M93.67,24.77a1.23,1.23 0,0 1,1.24 -1.3,1.3 1.3,0 1,1 0,2.61 1.23,1.23 0,0 1,-1.24 -1.3ZM94.18,21.76 L93.88,11.65L95.92,11.65l-0.29,10.11Z" id="path_145"/></svg>