<!-- This SVG was generated using https://composables.com -->
<svg id="vector" xmlns="http://www.w3.org/2000/svg" width="375" height="765" viewBox="0 0 375 765">
    <defs>
        <clipPath id="clip_path_0">
            <path d="M0,0h375v765h-375z"/>
        </clipPath>
    </defs>
    <g id="g_0">
        <path fill="#fff" d="M0,0h375v765h-375z" clip-path="url(#clip_path_0)"/>
        <path fill="none" d="M95,263h186v198h-186z"/>
        <path fill="#ED9CAF" d="M195,765a187.5,175 0,1 0,375 0a187.5,175 0,1 0,-375 0z" stroke-opacity="0.21" fill-opacity="0.21"/>
        <path fill="#ED9CAF" d="M87,584a50.5,47 0,1 0,101 0a50.5,47 0,1 0,-101 0z" stroke-opacity="0.21" fill-opacity="0.21"/>
        <path fill="#ED9CAF" d="M-113,49a150.5,140 0,1 0,301 0a150.5,140 0,1 0,-301 0z" stroke-opacity="0.21" fill-opacity="0.21"/>
        <path fill="#ED9CAF" d="M257,128a31.5,30 0,1 0,63 0a31.5,30 0,1 0,-63 0z" stroke-opacity="0.21" fill-opacity="0.21"/>
    </g>
</svg>