<svg width="42" height="42" viewBox="0 0 42 42" fill="none" xmlns="http://www.w3.org/2000/svg">
<g clip-path="url(#clip0_1_1157)">
<path d="M29.7268 14.3161C29.5475 13.8517 29.2729 13.43 28.9207 13.0782C28.5686 12.7264 28.1466 12.4522 27.682 12.2734C27.0423 12.0365 26.3666 11.9113 25.6845 11.9032C24.5501 11.8515 24.21 11.8386 21.3365 11.8386C18.4629 11.8386 18.1229 11.8515 16.9885 11.9032C16.3056 11.911 15.6292 12.0362 14.9889 12.2734C14.5245 12.4527 14.1028 12.7273 13.7509 13.0795C13.3991 13.4317 13.125 13.8537 12.9462 14.3183C12.7092 14.958 12.584 15.6336 12.5759 16.3158C12.5243 17.4501 12.5114 17.7902 12.5114 20.6638C12.5114 23.5373 12.5243 23.8774 12.5759 25.0118C12.5837 25.6946 12.709 26.371 12.9462 27.0114C13.1255 27.4758 13.4001 27.8975 13.7522 28.2493C14.1044 28.6011 14.5264 28.8753 14.991 29.0541C15.6307 29.291 16.3064 29.4163 16.9885 29.4243C18.1229 29.476 18.4629 29.4889 21.3365 29.4889C24.21 29.4889 24.5501 29.476 25.6845 29.4243C26.3673 29.4165 27.0438 29.2913 27.6841 29.0541C28.1485 28.8748 28.5702 28.6002 28.9221 28.248C29.2739 27.8958 29.548 27.4738 29.7268 27.0093C29.9638 26.3696 30.089 25.6939 30.0971 25.0118C30.1487 23.8774 30.1616 23.5373 30.1616 20.6638C30.1616 17.7902 30.1487 17.4501 30.0971 16.3158C30.0893 15.6329 29.964 14.9565 29.7268 14.3161ZM21.3365 26.1913C20.2432 26.1913 19.1746 25.8671 18.2656 25.2598C17.3566 24.6524 16.6481 23.7891 16.2297 22.7791C15.8113 21.769 15.7019 20.6576 15.9152 19.5854C16.1284 18.5132 16.6549 17.5282 17.4279 16.7552C18.201 15.9822 19.1859 15.4557 20.2581 15.2424C21.3304 15.0291 22.4418 15.1386 23.4518 15.557C24.4618 15.9753 25.3251 16.6838 25.9325 17.5928C26.5399 18.5018 26.864 19.5705 26.864 20.6638C26.864 22.1298 26.2817 23.5357 25.2451 24.5723C24.2084 25.609 22.8025 26.1913 21.3365 26.1913ZM27.0814 16.2103C26.826 16.2103 26.5763 16.1346 26.3639 15.9926C26.1516 15.8507 25.986 15.649 25.8883 15.413C25.7905 15.1771 25.7649 14.9174 25.8148 14.6669C25.8646 14.4163 25.9876 14.1862 26.1682 14.0056C26.3488 13.825 26.579 13.702 26.8295 13.6521C27.08 13.6023 27.3397 13.6279 27.5757 13.7256C27.8117 13.8234 28.0134 13.9889 28.1553 14.2013C28.2972 14.4137 28.3729 14.6634 28.3729 14.9188C28.3729 15.2613 28.2369 15.5898 27.9947 15.832C27.7525 16.0742 27.424 16.2103 27.0814 16.2103Z" fill="#474545"/>
<path d="M21.3362 24.252C23.3179 24.252 24.9244 22.6456 24.9244 20.6639C24.9244 18.6822 23.3179 17.0757 21.3362 17.0757C19.3545 17.0757 17.748 18.6822 17.748 20.6639C17.748 22.6456 19.3545 24.252 21.3362 24.252Z" fill="#474545"/>
<path d="M21.3362 0C17.2493 0 13.2542 1.21191 9.85608 3.48247C6.45795 5.75303 3.80942 8.98027 2.24543 12.7561C0.681439 16.5319 0.272227 20.6867 1.06954 24.6951C1.86686 28.7034 3.83489 32.3854 6.72477 35.2752C9.61465 38.1651 13.2966 40.1332 17.305 40.9305C21.3133 41.7278 25.4681 41.3186 29.2439 39.7546C33.0197 38.1906 36.247 35.5421 38.5175 32.1439C40.7881 28.7458 42 24.7507 42 20.6638C42 17.9502 41.4655 15.2631 40.4271 12.7561C39.3886 10.249 37.8665 7.97108 35.9477 6.05227C34.0289 4.13347 31.751 2.61139 29.2439 1.57293C26.7369 0.534484 24.0499 0 21.3362 0ZM32.034 25.1022C32.0156 25.9946 31.846 26.8774 31.5325 27.7131C31.2561 28.4279 30.8334 29.0771 30.2915 29.619C29.7495 30.1609 29.1004 30.5836 28.3856 30.86C27.5499 31.1735 26.6671 31.3431 25.7747 31.3616C24.6252 31.4132 24.2593 31.4261 21.3362 31.4261C18.4132 31.4261 18.0473 31.4132 16.8978 31.3616C16.0054 31.3431 15.1226 31.1735 14.2869 30.86C13.5721 30.5836 12.923 30.1609 12.381 29.619C11.8391 29.0771 11.4164 28.4279 11.14 27.7131C10.8265 26.8774 10.6569 25.9946 10.6385 25.1022C10.5868 23.9527 10.5739 23.5868 10.5739 20.6638C10.5739 17.7407 10.5868 17.3748 10.6385 16.2254C10.6569 15.333 10.8265 14.4501 11.14 13.6144C11.4164 12.8996 11.8391 12.2505 12.381 11.7085C12.923 11.1666 13.5721 10.7439 14.2869 10.4675C15.1226 10.154 16.0054 9.98442 16.8978 9.96596C18.0473 9.9143 18.4132 9.90138 21.3362 9.90138C24.2593 9.90138 24.6252 9.9143 25.7747 9.96596C26.6671 9.98442 27.5499 10.154 28.3856 10.4675C29.1004 10.7439 29.7495 11.1666 30.2915 11.7085C30.8334 12.2505 31.2561 12.8996 31.5325 13.6144C31.846 14.4501 32.0156 15.333 32.034 16.2254C32.0857 17.3748 32.0986 17.7407 32.0986 20.6638C32.0986 23.5868 32.0857 23.9527 32.034 25.1022Z" fill="#474545"/>
</g>
<defs>
<clipPath id="clip0_1_1157">
<rect width="41.3275" height="41.3275" fill="white" transform="translate(0.672485)"/>
</clipPath>
</defs>
</svg>
