<svg width="30" height="30" viewBox="0 0 30 30" fill="none" xmlns="http://www.w3.org/2000/svg">
<path fill-rule="evenodd" clip-rule="evenodd" d="M10.6645 3.67096C13.3956 2.08409 16.7525 2.11183 19.458 3.74362C22.1368 5.40864 23.765 8.38022 23.7498 11.5768C23.6874 14.7524 21.9416 17.7375 19.7593 20.0451C18.4998 21.383 17.0908 22.566 15.5611 23.57C15.4035 23.6611 15.2309 23.7221 15.0519 23.75C14.8795 23.7427 14.7116 23.6917 14.5634 23.6018C12.228 22.0932 10.1792 20.1675 8.51541 17.9175C7.12324 16.0392 6.33229 13.77 6.25 11.418C6.24819 8.21531 7.93346 5.25784 10.6645 3.67096ZM12.2429 12.7432C12.7023 13.8757 13.7867 14.6145 14.9897 14.6145C15.7778 14.6202 16.5354 14.3045 17.0937 13.7378C17.652 13.1711 17.9646 12.4005 17.9618 11.5977C17.966 10.3722 17.2445 9.26508 16.1343 8.79316C15.024 8.32123 13.744 8.57763 12.8918 9.44262C12.0397 10.3076 11.7835 11.6106 12.2429 12.7432Z" fill="#ED9CAF"/>
<ellipse opacity="0.4" cx="15" cy="26.25" rx="6.25" ry="1.25" fill="#ED9CAF"/>
</svg>
