<svg width="54" height="55" viewBox="0 0 54 55" fill="none" xmlns="http://www.w3.org/2000/svg">
<circle cx="27" cy="27.002" r="27" fill="white"/>
<g clip-path="url(#clip0_434_3487)">
<path d="M32.7102 36.7572C34.3628 35.7478 35.7185 34.4415 36.7081 32.7691C36.9951 32.2941 37.2326 31.7895 37.4602 31.2848C37.5789 31.0275 37.5195 30.9483 37.2326 30.9483C35.5997 30.9582 33.9669 30.9582 32.344 30.9582C30.8201 30.9582 29.306 30.9483 27.782 30.9681C27.5049 30.9681 27.4258 30.8889 27.4258 30.6118C27.4357 28.3358 27.4357 26.0598 27.4258 23.7936C27.4258 23.4967 27.5247 23.4473 27.7919 23.4473C33.6404 23.4572 39.4789 23.4572 45.3273 23.4473C45.5846 23.4473 45.6836 23.5165 45.7232 23.7837C45.8023 24.3478 45.8914 24.902 45.931 25.4759C45.9409 25.5452 45.9211 25.6243 46.0003 25.6738C46.0003 26.6139 46.0003 27.554 46.0003 28.4941C45.8617 28.8405 45.8914 29.2165 45.832 29.5728C45.3273 33.0759 43.9815 36.2129 41.7549 38.9738C40.9039 40.0228 39.9737 40.9926 38.8852 41.804C38.7268 41.6853 38.5685 41.5665 38.4201 41.4379C36.5102 39.8645 34.6102 38.3108 32.7102 36.7572Z" fill="#518EF7"/>
<path d="M28.4844 8.0099C28.9396 8.17812 29.4245 8.14844 29.8896 8.2276C33.2542 8.76198 36.2725 10.088 38.9344 12.2255C39.0928 12.3542 39.1027 12.4135 38.9443 12.5521C37.0146 14.1156 35.0949 15.6891 33.1751 17.2724C32.9969 17.4208 32.8782 17.3714 32.7199 17.2724C30.9089 16.2135 28.9495 15.699 26.8516 15.7187C22.2501 15.7682 18.0938 18.6677 16.461 22.9625C16.4214 23.0812 16.362 23.1901 16.3126 23.299C15.6298 22.7448 14.9469 22.2005 14.274 21.6464C12.8985 20.5281 11.523 19.4099 10.1475 18.2917C10.1771 18.2224 10.1969 18.1531 10.2365 18.0839C13.2943 12.5917 17.9157 9.29635 24.1204 8.21771C24.5855 8.13854 25.0704 8.16823 25.5256 8C26.5053 8.0099 27.4949 8.0099 28.4844 8.0099Z" fill="#F04336"/>
<path d="M32.71 36.7577C34.61 38.3113 36.5199 39.865 38.4199 41.4186C38.5683 41.5473 38.7266 41.666 38.885 41.7848C38.8553 41.8243 38.8256 41.8639 38.786 41.8936C36.1537 43.952 33.1949 45.2582 29.8896 45.7728C29.3949 45.852 28.8902 45.8322 28.4152 45.9905C27.4553 45.9905 26.4855 45.9905 25.5256 45.9905C25.1792 45.852 24.8131 45.8717 24.4568 45.8223C20.736 45.2879 17.4407 43.8134 14.5907 41.3592C12.8292 39.8353 11.3745 38.0639 10.2959 35.9858C12.3443 34.3134 14.3829 32.6509 16.4313 30.9785C17.1339 32.7202 18.1532 34.2441 19.5782 35.491C23.1407 38.6082 28.2766 39.1822 32.423 36.9061C32.512 36.8566 32.611 36.8072 32.71 36.7577Z" fill="#28B346"/>
<path d="M16.4212 30.9784C14.3728 32.6508 12.3342 34.3133 10.2858 35.9857C9.21706 34.0758 8.57383 32.0373 8.22747 29.8899C8.14831 29.4248 8.17799 28.9399 8.00977 28.4847C8.00977 27.4951 8.00977 26.5055 8.00977 25.516C8.07904 25.4863 8.07904 25.417 8.07904 25.3576C8.13841 24.6451 8.23737 23.9425 8.37591 23.2399C8.73216 21.5081 9.27643 19.8456 10.1374 18.292C11.5129 19.4102 12.8884 20.5284 14.2639 21.6467C14.9467 22.2008 15.6197 22.7451 16.3025 23.2993C15.9858 24.3977 15.7384 25.5159 15.7087 26.6738C15.679 28.1581 15.9363 29.5831 16.4212 30.9784Z" fill="#FABA01"/>
</g>
<defs>
<clipPath id="clip0_434_3487">
<rect width="38" height="38" fill="white" transform="translate(8 8)"/>
</clipPath>
</defs>
</svg>
