<?xml version="1.0" encoding="utf-8"?>
<!-- Generator: Adobe Illustrator 28.0.0, SVG Export Plug-In . SVG Version: 6.00 Build 0)  -->
<svg version="1.1" id="Слой_1" xmlns="http://www.w3.org/2000/svg" xmlns:xlink="http://www.w3.org/1999/xlink" x="0px" y="0px"
	 viewBox="0 0 1500 1500" style="enable-background:new 0 0 1500 1500;" xml:space="preserve">
<style type="text/css">
	.st0{fill:#262F65;}
	.st1{fill:#FCEDF2;}
	.st2{clip-path:url(#SVGID_00000068639471332958598560000008024993439816820125_);}
	.st3{fill:#F2CC8F;}
	.st4{fill:#3D405B;}
	.st5{fill:#FFDAC4;}
	
		.st6{clip-path:url(#XMLID_00000101065036621416701710000005671006448103595660_);fill:url(#SVGID_00000160184833805509248120000005117194494771602868_);}
	
		.st7{clip-path:url(#XMLID_00000101065036621416701710000005671006448103595660_);fill:url(#SVGID_00000176031219010308147160000009682304265042962613_);}
	
		.st8{clip-path:url(#XMLID_00000101065036621416701710000005671006448103595660_);fill:url(#SVGID_00000016037937666256255920000003872110059634196627_);}
	
		.st9{clip-path:url(#XMLID_00000101065036621416701710000005671006448103595660_);fill:url(#SVGID_00000016073226605540935690000005486486645712303792_);}
	
		.st10{clip-path:url(#XMLID_00000101065036621416701710000005671006448103595660_);fill:url(#SVGID_00000055709422014923224510000013773074171137239737_);}
	
		.st11{clip-path:url(#XMLID_00000128471491289798825560000002455260752800129440_);fill:none;stroke:#FFFFFF;stroke-width:1.1953;stroke-linecap:round;stroke-linejoin:round;stroke-miterlimit:10;}
	.st12{fill:none;stroke:#3D405B;stroke-width:1.1953;stroke-linecap:round;stroke-linejoin:round;stroke-miterlimit:10;}
	.st13{fill:none;stroke:#578C71;stroke-width:1.1953;stroke-linecap:round;stroke-linejoin:round;stroke-miterlimit:10;}
	.st14{fill:none;stroke:#A57F47;stroke-width:1.1953;stroke-linecap:round;stroke-linejoin:round;stroke-miterlimit:10;}
	.st15{opacity:0.21;fill:#999999;}
	.st16{fill:url(#SVGID_00000054236674880904822610000011174332819521842870_);}
	.st17{fill:#E07A5F;}
	.st18{fill:none;stroke:#000000;stroke-width:1.1953;stroke-linecap:round;stroke-linejoin:round;stroke-miterlimit:10;}
	.st19{fill:#D1AB8D;}
	.st20{fill:#E8C9AA;}
	.st21{fill:none;stroke:#B5523E;stroke-width:1.1953;stroke-linecap:round;stroke-linejoin:round;stroke-miterlimit:10;}
	.st22{fill:#272B44;}
	.st23{fill:#B5764C;}
	.st24{fill:#DEB69E;}
</style>
<g>
	<path class="st1" d="M671.89,425c0,0,240.41,86.14,491.85,127.56S1452.67,691.71,1349,888.84s-562.43,425.74-871.21,399.24
		S131.52,897.12,193.27,681.77S347.67,353.77,671.89,425z"/>
	<g>
		<defs>
			<path id="SVGID_1_" d="M671.89,425c0,0,277.66-252,529.09-210.58S1452.67,691.71,1349,888.84s-562.43,425.74-871.21,399.24
				S39.08,922.32,100.84,706.96S347.67,353.77,671.89,425z"/>
		</defs>
		<clipPath id="SVGID_00000085211073781674261930000018299628875716843708_">
			<use xlink:href="#SVGID_1_"  style="overflow:visible;"/>
		</clipPath>
		<g style="clip-path:url(#SVGID_00000085211073781674261930000018299628875716843708_);">
			<g id="_x34__00000083795147912333896140000000829582088257039003_">
				<path class="st3" d="M857.44,385.39c-0.16,0.49-0.34,0.98-0.54,1.47c-0.73,1.75-1.71,3.5-2.94,5.15
					c-0.06,0.09-0.14,0.18-0.2,0.26c-2.1,2.73-4.63,4.86-7.28,6.28c-0.18,1.76-0.44,3.48-0.77,5.15c-1.2,6.01-3.35,11.4-6.14,15.75
					c-1.61,2.51-3.43,4.68-5.43,6.43v0.01c-3.83,3.38-8.26,5.23-12.89,5c-10.25-0.51-18.46-10.97-21.07-25.17
					c-6.26,0.77-0.81-12.34-0.8-12.53c0.12-2.63,0.43-5.19,0.91-7.64c10.11,5.55,21.31,1.16,28.68-3.25
					c0.78-2.18,1.94-4.34,3.51-6.37c2.39-3.12,5.36-5.45,8.42-6.85c4.73-2.15,9.7-2.1,13.26,0.63
					C858.41,372.99,859.49,379.19,857.44,385.39z"/>
				<path class="st4" d="M840.89,369.09c-3.06,1.39-6.02,3.72-8.42,6.85c-1.56,2.02-2.73,4.19-3.51,6.37
					c-7.37,4.41-18.57,8.8-28.68,3.25c3.09-16.38,13.2-28.27,24.56-27.72C831.3,358.16,836.94,362.43,840.89,369.09z"/>
				<path class="st4" d="M892.91,411.53c-0.32,2.23-1.04,4.39-2.21,6.41c-2.11,3.67-5.38,6.33-9.25,7.88c-0.01,0-0.01,0-0.01,0
					c-0.49,0.19-0.98,0.37-1.49,0.53c-6.37,2.03-14.08,1.24-20.97-2.73c-7.98-4.61-12.8-12.33-13.28-19.92
					c0.33-1.67,0.59-3.39,0.77-5.15c2.65-1.42,5.18-3.55,7.28-6.28c0.06-0.09,0.14-0.18,0.2-0.26c1.23-1.65,2.21-3.39,2.94-5.15
					c0.2-0.49,0.38-0.98,0.54-1.47c6.61-2.61,14.94-2.02,22.33,2.25C889.16,393.05,894.17,402.78,892.91,411.53z"/>
				<path class="st5" d="M824.82,663.78c-4.28,60.9-19.01,119.93-36.49,165.03c-13.79-8.22-26.22-14.77-37.41-19.81
					c-9.87-32.07-22.49-88.31-15.21-150.51C769.58,667.99,802.75,666.65,824.82,663.78z"/>
				<path class="st3" d="M851.35,463.54l-6.55-14.33l-10.66-23.32v-0.01c1.99-1.75,3.82-3.92,5.43-6.43
					c2.8-4.36,4.94-9.75,6.14-15.75c0.49,7.59,5.3,15.31,13.28,19.92c6.89,3.97,14.6,4.76,20.97,2.73c0.51-0.15,1-0.33,1.49-0.53
					c0,0,0,0,0.01,0l12.33,15.17C893.78,440.99,894.49,465.45,851.35,463.54z"/>
				<g>
					<defs>
						<path id="XMLID_00000161623719970567079540000017093140635348817536_" d="M1186.15,1105.14
							c-72.56,65.72-266.88,183.96-445.95-11.95c-4.38-4.8-8.02-10.23-10.74-16.14l-0.08-0.17c2.96-43.21,13.3-152,45.18-216.51
							c4.69-9.48,9.32-20.07,13.77-31.57c17.48-45.1,32.21-104.13,36.49-165.03c-22.07,2.87-55.24,4.22-89.12-5.29
							c5.94-50.77,25.13-105.51,69.93-154.28c12.99-14.14,28.12-27.78,45.72-40.67c43.14,1.91,42.43-22.54,42.43-22.54
							s31.19-11.83,75.49-12.77c62.19-1.31,150.21,18.85,214.05,123.4c-33.34,27.96-70.33,39.81-91,44.57
							c33.46,60.47,65.16,135.21,84.13,222.65c4.83,22.24,8.84,45.3,11.83,69.16C1196.64,954.41,1197.23,1026.97,1186.15,1105.14z"
							/>
					</defs>
					<use xlink:href="#XMLID_00000161623719970567079540000017093140635348817536_"  style="overflow:visible;fill:#FF7A7B;"/>
					<clipPath id="XMLID_00000147923350418602096510000003614312060029288074_">
						<use xlink:href="#XMLID_00000161623719970567079540000017093140635348817536_"  style="overflow:visible;"/>
					</clipPath>
					
						<linearGradient id="SVGID_00000037678063231285392120000016203139963124003990_" gradientUnits="userSpaceOnUse" x1="612.3614" y1="963.3458" x2="857.2117" y2="963.3458">
						<stop  offset="0" style="stop-color:#FFFFFF;stop-opacity:0.3"/>
						<stop  offset="0.5369" style="stop-color:#F7F5E7;stop-opacity:0.7308"/>
						<stop  offset="0.8724" style="stop-color:#F4F1DE"/>
					</linearGradient>
					
						<path style="clip-path:url(#XMLID_00000147923350418602096510000003614312060029288074_);fill:url(#SVGID_00000037678063231285392120000016203139963124003990_);" d="
						M849.5,879.7c-5.68-11.24-15.85-20.74-26.59-27.09c-19.93-11.8-43.54-13.63-66.17-12.76c-14.84,0.58-29.75,2.52-44.34,5.23
						c-2.66,0.49-5.3,1.07-7.94,1.65c-0.46-0.52-0.93-1.04-1.42-1.52c-6.29-6.29-16.61-11.02-25.64-10.62
						c-19.9,0.89-35.93,15.93-36.26,36.26c-0.14,8.57,1.76,16.57,5.4,23.65c-3.39,2.31-6.47,4.92-8.98,7.73
						c-6.19,6.95-9.28,12.61-12.39,21.41c-2.03,5.76-2.48,12.17-3.12,18.16c-1.7,15.97,3.86,32.91,13.22,46.48
						c-3.12,3.87-5.53,8.32-6.55,12.79c-0.15,0.67-0.29,1.36-0.41,2.04c-1.89,2.33-3.6,4.84-5.04,7.57
						c-3.86,7.3-7.57,15.57-9.26,23.74c-1.83,8.88-2.4,16.34-0.43,25.17c2.39,10.66,9.65,20.46,19.03,26.04
						c7.38,4.39,16.1,6.16,24.63,5.83c3.63-0.14,6.99-0.32,10.62,0c9.64,0.86,19.19,0.79,28.85,0.48
						c10.49-0.33,21.21-0.99,31.43-3.47c28.29-6.86,50.15-32.28,49.92-61.91c-0.07-9.32-2.97-19.62-7.78-27.58
						c-5.21-8.62-11.54-14.18-19.65-19.93c-0.33-0.24-0.67-0.46-1.01-0.69c1.49,0.5,3,0.97,4.52,1.4
						c12.14,3.46,25.47,5.75,38.12,4.65c16.44-1.43,30.85-5.82,43.14-17.38c9.83-9.24,17.14-23.8,19.88-36.89
						C858.94,912.67,857.59,895.71,849.5,879.7z"/>
					
						<linearGradient id="SVGID_00000127757771814004369850000013155388788641107624_" gradientUnits="userSpaceOnUse" x1="985.9464" y1="754.4044" x2="1199.9626" y2="754.4044">
						<stop  offset="0" style="stop-color:#FFFFFF;stop-opacity:0.3"/>
						<stop  offset="0.5369" style="stop-color:#F7F5E7;stop-opacity:0.7308"/>
						<stop  offset="0.8724" style="stop-color:#F4F1DE"/>
					</linearGradient>
					
						<path style="clip-path:url(#XMLID_00000147923350418602096510000003614312060029288074_);fill:url(#SVGID_00000127757771814004369850000013155388788641107624_);" d="
						M1194.89,784.72c-1.05-1.79-2.33-3.55-3.8-5.23c2.1-7.41,2.38-15.54,2.16-23.18c-0.25-8.62-0.18-17.76-2.73-26.04
						c-3.94-12.75-12.2-24.67-24.39-30.75c-9.74-4.86-18.74-35.75-29.61-35.75c-6.99,0-17.28,0.42-24.26,0
						c-12.45-0.75-23.46,1.2-35.88,0c-4.4-0.79-82.37,91.73-14.15,59.39c27.91,6.02,12.11-15.76,11.38-16.17
						c3.94-0.98-3.75-23.12,0.26-23.76c9.78-1.06,19.6-1.49,29.41-2.22c9.72-0.73,19.57-1.55,29.32-0.86
						c4.82,0.87,9.67,1.71,14.53,1.45c9.61-0.53,18.7-3.69,25.64-10.62c6.29-6.29,11.02-16.61,10.62-25.64
						c-0.42-9.38-3.5-19.1-10.62-25.64c-6.87-6.31-16.02-11.15-25.64-10.62c-0.92,0.05-1.79,0.03-2.67-0.01
						c-5.16-0.76-10.33-1.45-15.56-1.61c-5.52-0.17-11.04,0.05-16.55,0.39c-11,0.68-22.05,1.3-33.02,2.29
						c-26.74,2.41-59.55,6.57-78.02,28.6c-11.11,13.25-16.8,29.59-15.03,46.98c0.65,6.37,1.34,13.49,3.42,19.7
						c3.5,10.43,7.6,17.19,14.32,25.63c9.15,11.52,22.7,18.43,36.01,23.87c11.21,4.58,22.97,6.15,34.96,7.48
						c10.87,1.2,21.82,1.11,32.73,1.67c0.82,0.04,1.63,0.09,2.45,0.14c-14.49,6.03-28.44,12.46-39.55,24.37
						c-7.96,8.54-13.71,18.33-17.15,29.51c-4.07,13.24-2.35,27.57,2.94,40.11c4.88,11.56,11.94,20.88,21.88,28.55
						c10.81,8.35,23.16,13.95,37.04,14.59c11.96,0.55,24.63-4.12,34.2-11.12c4.84-3.54,9.79-7.1,14-11.39
						c4.2-4.28,7.91-9.31,11.39-14.1c4.5-6.2,8.11-12.95,11.35-19.88c4.93-10.55,8.21-21.38,12.29-32.21
						C1201.69,804.34,1199.22,792.13,1194.89,784.72z"/>
					
						<linearGradient id="SVGID_00000146477337770699149010000004857625145020627624_" gradientUnits="userSpaceOnUse" x1="916.7433" y1="1128.1222" x2="1182.2041" y2="1128.1222">
						<stop  offset="0" style="stop-color:#FFFFFF;stop-opacity:0.3"/>
						<stop  offset="0.5369" style="stop-color:#F7F5E7;stop-opacity:0.7308"/>
						<stop  offset="0.8724" style="stop-color:#F4F1DE"/>
					</linearGradient>
					
						<path style="clip-path:url(#XMLID_00000147923350418602096510000003614312060029288074_);fill:url(#SVGID_00000146477337770699149010000004857625145020627624_);" d="
						M1180.94,1121.5c-1.07-10.3-1.67-21.06-5.16-30.89c-4.4-12.39-11.56-23.77-21.67-32.33c-10.42-8.82-21-15.26-34.14-19.35
						c-9.83-3.06-20.83-4.33-31.13-3.9c-12.11,0.51-24.77,2.35-35.01,9.35c-11.89,8.13-20.97,20.01-24.33,34.22
						c-1.66,7.03-2.09,14.04-1.33,20.9c-9.81-3.33-20.15-3.8-30.3-2.43c-7.86,1.06-14.29,2.88-21.51,6.53
						c-4.04,2.04-7.79,4.74-11.39,7.57c-7.45,4.99-15.11,9.76-21.59,16.02c-6.52,6.29-12.33,13.84-17.01,21.56
						c-7.09,11.71-11.99,25.58-8.44,39.32c3.4,13.11,12.84,22.85,25.09,28.02c24.85,10.49,54.3,3.26,78.38-5.63
						c13.98-5.16,28.47-8.09,43.16-10.25c11.38-1.39,22.8-2.37,34.23-3.17c5.44-0.38,10.95-1.18,16.45-1.63
						c1.41,2.26,3.04,4.35,4.87,6.18c6.29,6.29,16.61,11.02,25.64,10.62c9.38-0.42,19.1-3.5,25.64-10.62
						c6.52-7.1,10.6-15.81,10.62-25.64C1182.05,1157.74,1182.83,1139.68,1180.94,1121.5z"/>
					
						<linearGradient id="SVGID_00000101078332671069179860000009861116091506276265_" gradientUnits="userSpaceOnUse" x1="736.2906" y1="483.3649" x2="945.0834" y2="483.3649">
						<stop  offset="0" style="stop-color:#FFFFFF;stop-opacity:0.3"/>
						<stop  offset="0.5369" style="stop-color:#F7F5E7;stop-opacity:0.7308"/>
						<stop  offset="0.8724" style="stop-color:#F4F1DE"/>
					</linearGradient>
					
						<path style="clip-path:url(#XMLID_00000147923350418602096510000003614312060029288074_);fill:url(#SVGID_00000101078332671069179860000009861116091506276265_);" d="
						M944.06,486.95c-0.73-5.42-1.44-10.81-2.82-16.11c-2.06-7.88-5.51-15.17-8.95-22.49c-0.48-2.85-1.39-5.58-2.76-8.18
						c-1.46-4.5-3.96-8.38-7.5-11.67c-6.29-6.29-16.61-11.02-25.64-10.62c-9.38,0.42-19.1,3.5-25.64,10.62
						c-2.7,2.94-5.31,6.5-7.29,10.36c-7.2-0.92-14.57-0.84-21.54,1.49c-13.5,4.52-24.43,14.18-30.55,27.07
						c-1.21,2.56-2.3,5.15-3.34,7.76c-1.56-0.25-3.11-0.54-4.64-0.87c-0.28-0.29-0.57-0.58-0.87-0.86
						c-7.73-7.42-18.95-12.96-29.96-12.16c-9.71,0.71-18.59,3.57-25.64,10.62c-6.29,6.29-11.02,16.61-10.62,25.64
						c0.42,9.38,3.5,19.1,10.62,25.64c3.03,2.78,6.57,5.33,10.4,7.25c1.15,1.07,2.33,2.12,3.6,3.11c6.47,5,13.43,8.5,21.57,10.12
						c11.56,2.29,23.71,4.65,35.46,5.17c17.3,0.76,33.69-6.44,44.23-20.08c1.43-1.85,2.67-3.77,3.78-5.74
						c0.53,0.39,1.06,0.78,1.59,1.16c2.13,2.01,3.93,4.23,5.98,6.4c5.58,5.91,13.25,10.95,21.15,13.12
						c16.32,4.5,34.59-2.63,43.25-17.25c4.79-8.09,6.25-16.16,7.02-25.41C945.36,496.24,944.7,491.71,944.06,486.95z"/>
					
						<linearGradient id="SVGID_00000011715288721453492760000004246181932588577203_" gradientUnits="userSpaceOnUse" x1="681.5443" y1="675.3744" x2="804.5542" y2="675.3744">
						<stop  offset="0" style="stop-color:#FFFFFF;stop-opacity:0.3"/>
						<stop  offset="0.5369" style="stop-color:#F7F5E7;stop-opacity:0.7308"/>
						<stop  offset="0.8724" style="stop-color:#F4F1DE"/>
					</linearGradient>
					
						<path style="clip-path:url(#XMLID_00000147923350418602096510000003614312060029288074_);fill:url(#SVGID_00000011715288721453492760000004246181932588577203_);" d="
						M802.63,656.6c-3.77-12.58-13.28-23.96-24.96-29.93c-10.1-5.16-20.18-7.18-31.49-7.73c-19.69-0.96-39.23,2.51-54.14,16.35
						c-13.93,12.94-14.07,38.36,0,51.28c3.77,3.47,7.97,6.06,12.38,7.78c-0.17,3.72,0.21,7.4,1.28,10.69
						c2.84,8.77,8.28,17.24,16.66,21.67c8.07,4.26,19.07,7.2,27.94,3.66c13.53-5.41,24.95-11.52,35.96-21.3
						C800.88,696.08,808.34,675.68,802.63,656.6z"/>
				</g>
				<path class="st5" d="M788.33,828.8c-4.45,11.5-9.08,22.09-13.77,31.57c-31.88,64.52-42.23,173.3-45.18,216.51
					c-25.48-55.19-153.6-346.7,21.54-267.9C762.11,814.03,774.54,820.58,788.33,828.8z"/>
				<path class="st5" d="M1195.46,1096.36c-2.83,2.79-5.94,5.73-9.32,8.78c11.08-78.17,10.49-150.73,2.14-217.13
					c14.09-25.38,29.22-59.49,37.83-99.83c56.81-32.31,126.81-61.63,147.53-25.09C1410.26,827.63,1260,1032.78,1195.46,1096.36z"/>
				<path class="st5" d="M1226.12,788.18c-8.61,40.35-23.74,74.45-37.83,99.83c-3-23.86-7-46.92-11.83-69.16
					c-18.97-87.44-50.67-162.18-84.13-222.65c20.66-4.76,57.65-16.61,91-44.57c3.49,5.7,6.89,11.65,10.22,17.86
					C1237.21,650.99,1239.21,726.8,1226.12,788.18z"/>
				<g>
					<defs>
						<circle id="XMLID_00000098218437958760840880000017773119731576058808_" cx="555.13" cy="504.21" r="41.92"/>
					</defs>
					<use xlink:href="#XMLID_00000098218437958760840880000017773119731576058808_"  style="overflow:visible;fill:#F89B5F;"/>
					<clipPath id="XMLID_00000120545465152118048710000016610506194975738511_">
						<use xlink:href="#XMLID_00000098218437958760840880000017773119731576058808_"  style="overflow:visible;"/>
					</clipPath>
					
						<path style="clip-path:url(#XMLID_00000120545465152118048710000016610506194975738511_);fill:none;stroke:#FFFFFF;stroke-width:1.1953;stroke-linecap:round;stroke-linejoin:round;stroke-miterlimit:10;" d="
						M581.9,427.43c0,0-111.3,96.5,45.83,72.69"/>
					
						<path style="clip-path:url(#XMLID_00000120545465152118048710000016610506194975738511_);fill:none;stroke:#FFFFFF;stroke-width:1.1953;stroke-linecap:round;stroke-linejoin:round;stroke-miterlimit:10;" d="
						M630.71,482.86c0,0-80.35-67.25-54.76,73.21"/>
					
						<path style="clip-path:url(#XMLID_00000120545465152118048710000016610506194975738511_);fill:none;stroke:#FFFFFF;stroke-width:1.1953;stroke-linecap:round;stroke-linejoin:round;stroke-miterlimit:10;" d="
						M502.75,504.21c0,0,58.33-24.33,30.95,52.45"/>
				</g>
				<path class="st12" d="M839.12,376.45c0,0-0.7,12.02,10.19,13.07"/>
				<line class="st12" x1="851.4" y1="375.93" x2="841.37" y2="385.03"/>
				<line class="st13" x1="824.82" y1="663.78" x2="828.02" y2="616.96"/>
				<line class="st13" x1="1092.32" y1="596.2" x2="1073.61" y2="558.98"/>
				<path class="st14" d="M750.92,808.99c0,0,36.95,17.89,37.41,19.81"/>
				<path class="st14" d="M1226.12,788.18c0,0-8.33,45.16-37.83,99.83"/>
				<path class="st15" d="M834.14,425.89c0,0,8.55-6.39,11.57-22.19l-0.91,45.51L834.14,425.89z"/>
				<path class="st12" d="M805.85,395.56c0,0,3.33-1.97,5.93,1.8"/>
				
					<linearGradient id="SVGID_00000021831435383645884090000018272919080488972969_" gradientUnits="userSpaceOnUse" x1="806.2193" y1="408.5163" x2="813.0599" y2="408.5163">
					<stop  offset="0" style="stop-color:#FFFFFF;stop-opacity:0.3"/>
					<stop  offset="0.5369" style="stop-color:#F7F5E7;stop-opacity:0.7308"/>
					<stop  offset="0.8724" style="stop-color:#F4F1DE"/>
				</linearGradient>
				<path style="fill:url(#SVGID_00000021831435383645884090000018272919080488972969_);" d="M812.5,404.82c0,0-1.69,4.49-6.28,6.35
					C806.22,411.16,815.39,416.03,812.5,404.82z"/>
				
					<ellipse transform="matrix(0.2417 -0.9703 0.9703 0.2417 235.2863 1083.401)" class="st4" cx="810.84" cy="391.16" rx="1.47" ry="5.89"/>
				<circle class="st17" cx="818.18" cy="400.71" r="2.13"/>
			</g>
			<path class="st18" d="M250.53,975.02c0,0,45.92,44.56,25.89,79.51"/>
			<path class="st19" d="M562.02,1139.24c-17.6-1.11-69.05-6.99-112.38-37.99c0,0,6.37-6.39,13.91-15.59
				c6.22-7.6,13.24-17.12,18.12-26.54c2.94-5.66,5.1-11.28,5.86-16.42c37.86-18.67,57.22-33.07,66.76-41.81
				c7.34-6.73,12.21-15.83,13.15-25.76c1.1-11.58-3.33-19.81-8.69-25.41c-0.4-0.42-0.81-0.83-1.24-1.24
				c-1.43,2.11-3.8,4.06-6.81,5.33c-6,2.57-12.2,1.51-13.86-2.37c-1.54-3.6,1.42-8.38,6.68-11.08c-2.55-0.8-5.2-1.34-7.89-1.6
				c-55.27-5.42-92.64,0.03-117.9,9.76c-17.04,6.56-28.56,15.07-36.36,23.49c0,0-1.32-0.14-3.55-0.47
				c-0.11-0.02-0.22-0.03-0.34-0.06c-1.24-0.18-2.73-0.43-4.41-0.73c-0.29-0.06-0.59-0.11-0.89-0.17c-0.61-0.11-1.23-0.24-1.87-0.37
				c-0.48-0.1-0.97-0.2-1.47-0.31c-0.05-0.01-0.1-0.02-0.14-0.03c-0.45-0.1-0.92-0.19-1.39-0.3c-2.53-0.57-5.24-1.25-7.99-2.06
				c-0.23-0.06-0.45-0.14-0.69-0.21c-0.43-0.13-0.86-0.26-1.29-0.4c-0.65-0.21-1.31-0.42-1.97-0.65c-0.33-0.11-0.66-0.22-0.99-0.34
				c-0.33-0.11-0.65-0.23-0.98-0.35c-0.01,0-0.01,0-0.01,0c-0.33-0.12-0.65-0.24-0.97-0.37c-0.06-0.02-0.11-0.04-0.16-0.06
				c-0.27-0.1-0.55-0.22-0.82-0.32c-0.35-0.14-0.71-0.29-1.06-0.43c-0.23-0.1-0.46-0.19-0.69-0.29c-1.21-0.52-2.41-1.06-3.55-1.63
				c-0.14-0.07-0.29-0.14-0.43-0.22c-1.74-0.88-3.39-1.85-4.92-2.89l-0.45-0.31c-0.9-0.64-1.75-1.3-2.54-1.99
				c-0.14-0.11-0.27-0.23-0.4-0.35c-1.01-0.91-1.92-1.87-2.71-2.89c-0.02-0.03-0.05-0.06-0.06-0.09c-2.62-3.5-0.76-8.56,3.51-9.54
				c0.2-0.05,0.41-0.1,0.62-0.14c1.32-0.29,2.85-0.58,4.58-0.84c0.5-0.08,1.03-0.15,1.57-0.23c0.38-0.05,0.77-0.1,1.18-0.15
				c-37.13-13.32-78.19-37.42-123.18-32c-6.26,0.76-11.87,2.26-16.87,4.39c-14.87,6.32-24.33,18.07-29.54,31.51
				c-10.38,26.73-4.02,60.14,9.83,70.86c1.45,1.12,2.82,2.27,4.1,3.43c14.26,12.9,20.9,32.15,18.56,51.24
				c-5.93,48.27,9.05,69.5,22.13,81.19c14.18,12.69,44.79,2.99,23.89-23.14s-14.93-49.27-14.93-49.27
				c19.36-7.18,30.58-16.44,36.35-26.5c16.17,26.31,56.96,78.04,122.67,66.81c0,0,46.89,43.22,158.09,41.13
				c3.45-0.07,6.87-0.93,9.85-2.67c3.51-2.04,6.91-5.49,5.96-11C572.08,1143.47,567.42,1139.58,562.02,1139.24z M447.39,963.58
				c0-1.18,4.35-2.14,9.72-2.14c5.37,0,9.72,0.96,9.72,2.14c0,1.17-4.35,2.13-9.72,2.13C451.75,965.71,447.39,964.75,447.39,963.58z
				"/>
			<path class="st18" d="M466.84,963.58c0,1.17-4.35,2.13-9.72,2.13c-5.37,0-9.72-0.96-9.72-2.13c0-1.18,4.35-2.14,9.72-2.14
				C462.49,961.45,466.84,962.4,466.84,963.58z"/>
			<path class="st20" d="M570.66,1127.44c-15.67-0.71-59.01-6.1-107.11-41.79c6.22-7.6,13.24-17.12,18.12-26.54
				c10.18,9.21,47.19,39.86,93.49,44.68c4.64,0.48,9.03,2.57,12.02,6.15c2.96,3.53,4.42,8.27-1.73,13
				C581.24,1126.18,575.96,1127.68,570.66,1127.44z"/>
			<path class="st21" d="M487.53,1042.7c-11.69,4.89-39.67,16.42-53.13,19.72"/>
			<path class="st22" d="M557.52,948.48c-1.43,2.11-3.8,4.06-6.81,5.33c-6,2.57-12.2,1.51-13.86-2.37
				c-1.54-3.6,1.42-8.38,6.68-11.08c0.39-0.2,0.79-0.38,1.2-0.56c5.99-2.56,12.2-1.5,13.85,2.37
				C559.4,944.11,558.93,946.37,557.52,948.48z"/>
			<path class="st23" d="M362.52,1026.03c0,0-61.61-24.17-47.64-33.57c9.7-6.52,40.34-8.77,58.21-9.53
				C357.08,1001.2,362.52,1026.03,362.52,1026.03z"/>
			<path class="st23" d="M417.74,948.52c-17.04,6.56-28.56,15.07-36.36,23.49c0,0-1.32-0.14-3.55-0.47
				c-0.11-0.02-0.22-0.03-0.34-0.06c-1.24-0.18-2.73-0.43-4.41-0.73c-0.29-0.06-0.59-0.11-0.89-0.17c-0.61-0.11-1.23-0.24-1.87-0.37
				c-0.48-0.1-0.97-0.2-1.47-0.31c-0.05-0.01-0.1-0.02-0.14-0.03c-0.45-0.1-0.92-0.19-1.39-0.3c-2.53-0.57-5.24-1.25-7.99-2.06
				c-0.23-0.06-0.45-0.14-0.69-0.21c-0.43-0.13-0.86-0.26-1.29-0.4c-0.65-0.21-1.31-0.42-1.97-0.65c-0.33-0.11-0.66-0.22-0.99-0.34
				c-0.33-0.11-0.65-0.23-0.98-0.35c-0.01,0-0.01,0-0.01,0c-0.33-0.12-0.65-0.24-0.97-0.37c-0.06-0.02-0.11-0.04-0.16-0.06
				c-0.27-0.1-0.55-0.22-0.82-0.32c-0.35-0.14-0.71-0.29-1.06-0.43c-0.23-0.1-0.46-0.19-0.69-0.29c-1.21-0.52-2.41-1.06-3.55-1.63
				c-0.14-0.07-0.29-0.14-0.43-0.22c-1.74-0.88-3.39-1.85-4.92-2.89l-0.45-0.31c-0.9-0.64-1.75-1.3-2.54-1.99
				c-0.14-0.11-0.27-0.23-0.4-0.35c-1.01-0.91-1.92-1.87-2.71-2.89c-0.02-0.03-0.05-0.06-0.06-0.09c-2.62-3.5-0.76-8.56,3.51-9.54
				c0.2-0.05,0.41-0.1,0.62-0.14c1.32-0.29,2.85-0.58,4.58-0.84c0.5-0.08,1.03-0.15,1.57-0.23c0.38-0.05,0.77-0.1,1.18-0.15
				C359.16,941.18,381.88,941,417.74,948.52z"/>
			<path class="st22" d="M466.84,963.58c0,1.17-4.35,2.13-9.72,2.13c-5.37,0-9.72-0.96-9.72-2.13c0-1.18,4.35-2.14,9.72-2.14
				C462.49,961.45,466.84,962.4,466.84,963.58z"/>
			<path class="st18" d="M512.4,977.68c0,0,10.77,6.79,18.74-1.41"/>
			<path class="st24" d="M224.3,799.03c-17.64,6.71-66.84,46.2-18.26,116.17c-14.87,6.32-24.33,18.07-29.54,31.51
				c-13.4-16.62-47.19-65.77-27.31-118.4c5.09-13.46,13.99-25.25,26.04-33.1c12.1-7.87,29.88-14.03,52.59-7.2
				C227.82,788.01,242.82,791.97,224.3,799.03z"/>
			<path class="st21" d="M366.26,1042.7c0,0-23.96-63.61,51.48-94.18"/>
			<line class="st21" x1="276.42" y1="1054.53" x2="243.97" y2="995.61"/>
			<line class="st21" x1="399.1" y1="1121.34" x2="373.09" y2="1105.05"/>
			<line class="st21" x1="449.64" y1="1101.25" x2="428.42" y2="1090.07"/>
		</g>
	</g>
</g>
</svg>
