<svg width="30" height="30" viewBox="0 0 30 30" fill="none" xmlns="http://www.w3.org/2000/svg">
<path opacity="0.4" d="M27.5 19.9248C27.5 23.4123 24.7 26.2373 21.2125 26.2498H21.2H8.8125C5.3375 26.2498 2.5 23.4373 2.5 19.9498V19.9373C2.5 19.9373 2.5075 14.4048 2.5175 11.6223C2.51875 11.0998 3.11875 10.8073 3.5275 11.1323C6.4975 13.4885 11.8088 17.7848 11.875 17.841C12.7625 18.5523 13.8875 18.9535 15.0375 18.9535C16.1875 18.9535 17.3125 18.5523 18.2 17.8273C18.2663 17.7835 23.4588 13.616 26.4738 11.221C26.8838 10.8948 27.4862 11.1873 27.4875 11.7085C27.5 14.4698 27.5 19.9248 27.5 19.9248Z" fill="#ED9CAF"/>
<path d="M26.8451 7.09152C25.7626 5.05152 23.6326 3.74902 21.2876 3.74902H8.81263C6.46763 3.74902 4.33763 5.05152 3.25513 7.09152C3.01263 7.54777 3.12763 8.11652 3.53138 8.43902L12.8126 15.8628C13.4626 16.3878 14.2501 16.649 15.0376 16.649C15.0426 16.649 15.0464 16.649 15.0501 16.649C15.0539 16.649 15.0589 16.649 15.0626 16.649C15.8501 16.649 16.6376 16.3878 17.2876 15.8628L26.5689 8.43902C26.9726 8.11652 27.0876 7.54777 26.8451 7.09152Z" fill="#ED9CAF"/>
</svg>
