<!-- This SVG was generated using https://composables.com -->
<svg id="vector" xmlns="http://www.w3.org/2000/svg" width="25.9" height="28.8" viewBox="0 0 25.9 28.8">
    <path fill="#000000FF" d="M20.2,12.5c0,0.5 0,1 0,1.4c0,0.1 0,0.3 0.1,0.4c0.4,0.6 0.8,1.2 1.2,1.9c1.1,1.8 0.2,4.1 -1.8,4.5c-0.3,0.1 -0.7,0.1 -1,0.1c-0.3,0 -0.7,0 -1,0c-0.2,0 -0.2,0 -0.3,0.2c-0.4,1.6 -1.5,2.8 -3.1,3.3c-2.4,0.7 -5,-0.7 -5.6,-3.2c-0.1,-0.2 -0.1,-0.3 -0.4,-0.3c-0.6,0 -1.2,0 -1.8,-0.1c-2.1,-0.3 -3.1,-2.7 -2,-4.5c0.4,-0.6 0.8,-1.2 1.2,-1.8c0.1,-0.2 0.2,-0.4 0.2,-0.6c0,-0.9 0,-1.8 0,-2.7c0.1,-2.1 1,-3.8 2.6,-5.1c1.5,-1.3 3.3,-1.8 5.3,-1.6c3.2,0.3 5.9,2.8 6.4,6C20.1,11.1 20.2,11.8 20.2,12.5C20.2,12.5 20.2,12.5 20.2,12.5zM13,18.9c2,0 3.9,0 5.9,0c0.2,0 0.3,0 0.5,-0.1c0.8,-0.2 1.1,-1.1 0.6,-1.8c-0.4,-0.7 -0.9,-1.3 -1.3,-2c-0.2,-0.3 -0.3,-0.6 -0.3,-0.9c0,-0.8 0,-1.6 0,-2.4c0,-0.3 0,-0.7 -0.1,-1c-0.4,-2.9 -3.3,-4.9 -6.1,-4.5C9.5,6.7 7.6,9 7.6,11.7c0,0.8 0,1.7 0,2.5c0,0.3 -0.1,0.5 -0.2,0.8c-0.4,0.7 -0.9,1.3 -1.3,2c-0.2,0.2 -0.3,0.5 -0.2,0.8c0.1,0.6 0.6,1.1 1.2,1.1C9,18.9 11,18.9 13,18.9L13,18.9zM15.5,20.8h-5c0.2,1 1.4,1.8 2.5,1.8C14.1,22.6 15.2,21.8 15.5,20.8z" id="path_0"/>
    <path fill="#ED9CAF" d="M18.5,8.1m-6,0a6,6 0,1 1,12 0a6,6 0,1 1,-12 0" id="path_1"/>
</svg>