<svg width="50" height="50" viewBox="0 0 50 50" fill="none" xmlns="http://www.w3.org/2000/svg">
<circle cx="25" cy="25" r="25" fill="#FFE8E5"/>
<path d="M30.7891 30.7413H32.5352C33.1835 30.7413 33.8052 30.4837 34.2637 30.0253C34.7221 29.5669 34.9796 28.9451 34.9796 28.2968C34.9796 27.6485 34.7221 27.0267 34.2637 26.5683C33.8052 26.1099 33.1835 25.8523 32.5352 25.8523H27.9954M29.1594 24.2227L27.5298 25.8523L29.1594 27.482" stroke="#474545" stroke-width="1.4" stroke-linecap="round" stroke-linejoin="round"/>
<path d="M28.1817 30.9889C26.4359 32.6547 24.9224 34 24.9224 34C24.9224 34 19.0556 28.7851 17.1 26.1777C15.1444 23.5702 15.7963 19.659 19.0556 18.3553C22.3149 17.0516 24.2705 19.659 24.9224 20.9628C25.5742 19.659 28.1817 17.0516 31.441 18.3553C33.7537 19.2804 34.4253 21.5182 33.9218 23.6716" stroke="#474545" stroke-width="1.4" stroke-linecap="round" stroke-linejoin="round"/>
</svg>
