<svg width="48" height="48" viewBox="0 0 48 48" fill="none" xmlns="http://www.w3.org/2000/svg">
<path fill-rule="evenodd" clip-rule="evenodd" d="M24 48C37.2548 48 48 37.2548 48 24C48 10.7452 37.2548 0 24 0C10.7452 0 0 10.7452 0 24C0 37.2548 10.7452 48 24 48ZM18.4565 20.0275C18.7052 20.0317 18.954 20.0359 19.2026 20.0359L19.2022 20.0356V20.0236C19.4148 20.0236 19.6274 20.0237 19.8399 20.0239C20.4509 20.0244 21.0618 20.0249 21.6727 20.0212C21.8213 20.0206 21.9768 20.0102 22.1167 19.9659C22.5809 19.8189 22.878 19.3417 22.8029 18.8934C22.7157 18.3744 22.3171 18.0202 21.8029 18.0195L21.0746 18.0183C19.715 18.0159 18.3555 18.0135 16.9959 18.0245C16.6032 18.0275 16.2063 18.0708 15.8193 18.1408C14.6363 18.3548 13.6013 18.8804 12.7098 19.6836C10.815 21.3914 10.1509 23.5221 10.5769 26.0048C10.7796 27.1869 11.3265 28.2138 12.1285 29.1057C13.3745 30.4915 14.9214 31.2817 16.7909 31.3334C18.0934 31.3693 19.3975 31.3601 20.7014 31.3509H20.7015H20.7017H20.7018C21.0783 31.3483 21.4548 31.3456 21.8313 31.344C22.5378 31.3414 23.0079 30.6041 22.7254 29.9579C22.5408 29.5359 22.1996 29.347 21.7435 29.347C21.3799 29.3472 21.0162 29.348 20.6526 29.3487H20.6526H20.6525C19.5196 29.3511 18.3865 29.3534 17.2537 29.3403C16.829 29.3353 16.3932 29.296 15.9829 29.1923C13.2163 28.4931 11.7091 25.5462 12.8153 22.9262C13.5515 21.1824 14.8927 20.1699 16.8166 20.0446C17.3612 20.009 17.9088 20.0183 18.4565 20.0275ZM29.1533 29.3325H29.1533H29.1534C29.7012 29.3398 30.2491 29.347 30.7951 29.319C32.4749 29.233 33.7317 28.4055 34.5487 26.967C36.0368 24.3463 34.748 21.0661 31.7434 20.1949C31.2963 20.0653 30.8392 20.0153 30.3758 20.0153L29.8768 20.015C28.5464 20.0144 27.2161 20.0138 25.8856 20.0153C25.4225 20.0159 25.0776 19.8253 24.8913 19.3963C24.6142 18.7584 25.0833 18.0212 25.7798 18.0182C26.1372 18.0165 26.4946 18.0139 26.852 18.0113C28.1807 18.0017 29.5095 17.992 30.8369 18.0285C32.7006 18.0799 34.2419 18.8701 35.4856 20.2489C36.2889 21.1398 36.8375 22.166 37.0419 23.3475C37.4682 25.8155 36.8145 27.9399 34.9417 29.65C34.0425 30.4712 32.9938 31.0061 31.7938 31.2224C31.4015 31.2931 30.9988 31.3347 30.6001 31.3381C29.3002 31.3487 28.0002 31.3464 26.7004 31.3441L25.8265 31.3427C25.3738 31.3421 24.9741 31.0481 24.8566 30.6392C24.7291 30.1949 24.889 29.7543 25.2693 29.5023C25.4523 29.3813 25.6556 29.342 25.872 29.3423C26.4867 29.3435 27.1015 29.3434 27.7163 29.3432H27.7176L28.4092 29.343V29.326C28.6571 29.326 28.9052 29.3293 29.1533 29.3325ZM24.9916 23.6834C24.596 23.6836 24.2003 23.6838 23.8047 23.6838L23.8043 23.6841H22.0858C21.8373 23.6842 21.5888 23.6836 21.3402 23.683C20.7601 23.6815 20.1799 23.6801 19.6 23.6878C18.9346 23.6964 18.4778 24.358 18.6858 24.9889C18.8297 25.4249 19.1954 25.6778 19.6948 25.6778C21.5228 25.6783 23.3505 25.6781 25.1783 25.678C26.0923 25.6779 27.0062 25.6778 27.9202 25.6778C27.9813 25.6778 28.0427 25.6772 28.1035 25.6718C28.5516 25.6328 28.9469 25.2306 28.9786 24.7829C29.023 24.1587 28.589 23.6861 27.9589 23.6848C26.9699 23.6826 25.9807 23.683 24.9916 23.6834Z" fill="#474545"/>
</svg>
