<svg width="18" height="18" viewBox="0 0 18 18" fill="none" xmlns="http://www.w3.org/2000/svg">
<g clip-path="url(#clip0_71_409)">
<path d="M16 0H2C0.89543 0 0 0.89543 0 2V16C0 17.1046 0.89543 18 2 18H16C17.1046 18 18 17.1046 18 16V2C18 0.89543 17.1046 0 16 0Z" fill="#ED9CAF"/>
<path d="M16 0.5H2C1.17157 0.5 0.5 1.17157 0.5 2V16C0.5 16.8284 1.17157 17.5 2 17.5H16C16.8284 17.5 17.5 16.8284 17.5 16V2C17.5 1.17157 16.8284 0.5 16 0.5Z" stroke="#ED9CAF"/>
<path d="M13 6L7.5 11.5L5 9" stroke="white" stroke-width="2" stroke-linecap="round" stroke-linejoin="round"/>
</g>
<defs>
<clipPath id="clip0_71_409">
<rect width="18" height="18" fill="white"/>
</clipPath>
</defs>
</svg>
