<svg width="48" height="48" viewBox="0 0 48 48" fill="none" xmlns="http://www.w3.org/2000/svg">
<circle cx="24" cy="24" r="24" fill="#474545"/>
<path d="M22.818 26.693C22.381 27.2134 21.9631 27.7094 21.5461 28.2067C19.405 30.7612 17.2643 33.3161 15.1215 35.8689C15.0756 35.9233 15.0038 35.9901 14.9432 35.991C14.3133 36 13.683 35.9966 13 35.9966C13.2956 35.6406 13.5581 35.3224 13.8232 35.0063C16.11 32.2792 18.3972 29.5525 20.6844 26.8258C21.043 26.3983 21.3954 25.9653 21.7636 25.5468C21.8909 25.4021 21.9088 25.3083 21.7924 25.1348C18.9232 20.8632 16.0608 16.5864 13.1975 12.31C13.139 12.2231 13.0827 12.1349 13.0071 12.0201C13.1073 12.0154 13.1799 12.0089 13.2521 12.0089C15.3603 12.0085 17.4684 12.0111 19.5765 12.0042C19.7502 12.0038 19.8491 12.0578 19.9468 12.2042C21.8045 14.99 23.668 17.7716 25.5306 20.5539C25.5849 20.6349 25.6434 20.7137 25.7081 20.8049C25.7552 20.7604 25.7936 20.7312 25.8237 20.6953C28.1698 17.8979 30.5175 15.1023 32.8557 12.298C33.0352 12.0826 33.2101 11.9879 33.4885 12.0012C34.0158 12.0256 34.5451 12.0085 35.1212 12.0085C35.0577 12.0882 35.0185 12.14 34.9767 12.1897C32.2504 15.4419 29.5252 18.6954 26.7926 21.9425C26.6461 22.1164 26.6432 22.2214 26.7692 22.409C29.7603 26.8635 32.7438 31.3232 35.7286 35.782C35.7674 35.8398 35.8029 35.8998 35.8571 35.9854C35.7628 35.9897 35.691 35.9957 35.6188 35.9957C33.5036 35.9961 31.3883 35.9944 29.2735 36C29.1166 36 29.0255 35.9533 28.9358 35.8188C26.9433 32.8334 24.9458 29.8519 22.9487 26.8699C22.9136 26.8177 22.8744 26.7684 22.8185 26.6922L22.818 26.693ZM15.7581 13.5719C15.8115 13.6584 15.842 13.7132 15.8771 13.7646C20.5509 20.625 25.2251 27.485 29.8968 34.3467C29.9719 34.4568 30.0475 34.5086 30.184 34.5073C31.0882 34.5009 31.9928 34.5043 32.897 34.5034C32.9534 34.5034 33.0097 34.4927 33.0915 34.4846C33.0151 34.3724 32.96 34.2906 32.9045 34.2092C30.7525 31.0512 28.6006 27.8932 26.449 24.7352C23.9468 21.0623 21.4446 17.3895 18.9453 13.7145C18.8694 13.6027 18.7875 13.5573 18.654 13.5582C17.7498 13.5637 16.8451 13.5607 15.9409 13.5616C15.8938 13.5616 15.8466 13.5667 15.7589 13.5723L15.7581 13.5719Z" fill="#F7F7F7"/>
</svg>
