<svg width="48" height="48" viewBox="0 0 48 48" fill="none" xmlns="http://www.w3.org/2000/svg">
<circle cx="24" cy="24" r="24" fill="#474545"/>
<path d="M12.0379 36.0163C12.132 35.5869 12.2198 35.1863 12.3079 34.7857C12.6868 33.0668 13.0667 31.3479 13.4406 29.6278C13.4556 29.5584 13.4286 29.4676 13.3938 29.4013C12.6714 28.0251 12.2119 26.5669 12.0593 25.0205C11.8549 22.9494 12.1778 20.954 13.0502 19.0655C14.4117 16.1179 16.6182 14.0355 19.6319 12.8349C21.6047 12.0492 23.6597 11.8103 25.7597 12.1512C29.8907 12.8214 32.892 15.0707 34.7853 18.7764C35.8629 20.8857 36.2218 23.1508 35.8689 25.4964C35.2361 29.7013 32.9493 32.7322 29.1751 34.6267C27.0548 35.6911 24.783 36.0036 22.428 35.6994C21.1344 35.5325 19.9057 35.1574 18.7306 34.5937C18.6406 34.5505 18.5123 34.549 18.4118 34.5715C16.3234 35.043 14.2365 35.5205 12.1493 35.9968C12.1257 36.0021 12.1013 36.0054 12.0379 36.0163ZM14.5088 33.521C14.5857 33.5105 14.6281 33.5082 14.6686 33.4989C15.9592 33.2059 17.2506 32.9179 18.5385 32.6145C18.773 32.5593 18.9601 32.5882 19.1735 32.7018C21.5316 33.9591 24.0145 34.2651 26.5976 33.5855C29.1214 32.9213 31.1051 31.4746 32.5203 29.2839C33.9545 27.0635 34.4091 24.6304 33.9271 22.0361C33.62 20.3832 32.9175 18.8941 31.8268 17.6167C29.3138 14.6731 26.1235 13.4692 22.2926 14.0419C20.5121 14.3082 18.9271 15.0561 17.5435 16.206C15.6787 17.7562 14.5017 19.723 14.0479 22.1118C13.8071 23.3799 13.8217 24.6454 14.097 25.9079C14.3374 27.0098 14.7564 28.0398 15.322 29.0138C15.385 29.1226 15.4322 29.2767 15.4082 29.3938C15.229 30.268 15.029 31.1382 14.837 32.0098C14.7286 32.5027 14.6225 32.9966 14.5088 33.521Z" fill="#F7F7F7"/>
<path d="M20.4198 18.6661C20.5402 18.6661 20.6089 18.6695 20.6775 18.6654C20.9682 18.6481 21.1707 18.7816 21.2926 19.037C21.3972 19.2565 21.4921 19.4807 21.5855 19.7054C21.7914 20.2009 21.9895 20.6997 22.1988 21.1941C22.2753 21.3748 22.2937 21.5511 22.1781 21.7113C21.9823 21.9824 21.7851 22.2551 21.563 22.5042C21.2802 22.8215 21.2645 22.8957 21.4816 23.2547C22.3612 24.7077 23.5786 25.7654 25.1528 26.4101C25.4513 26.5324 25.5725 26.5151 25.7761 26.2706C26.0518 25.9394 26.323 25.6045 26.5904 25.2665C26.7783 25.0287 26.8871 24.971 27.1691 25.0962C27.7903 25.3719 28.4001 25.6735 29.0141 25.9653C29.1495 26.0298 29.2808 26.1025 29.4169 26.1641C29.5924 26.2432 29.6675 26.3775 29.6637 26.565C29.6468 27.3905 29.3674 28.0593 28.6263 28.5161C27.8551 28.9913 27.0476 29.0678 26.1958 28.8552C24.6779 28.4756 23.2564 27.8939 22.0502 26.8591C21.1429 26.0804 20.3722 25.1859 19.6914 24.2062C19.2545 23.5772 18.8464 22.9355 18.6488 22.1876C18.3213 20.9491 18.5921 19.8659 19.5189 18.962C19.7871 18.7006 20.1141 18.638 20.4191 18.6665L20.4198 18.6661Z" fill="#F7F7F7"/>
</svg>
