<svg width="50" height="50" viewBox="0 0 50 50" fill="none" xmlns="http://www.w3.org/2000/svg">
<circle cx="25" cy="25" r="25" fill="#FFE8E5"/>
<path d="M31.4486 30.5962C31.5251 31.5485 30.7729 32.3636 29.8174 32.3636H18.6365C17.6811 32.3636 16.9288 31.5485 17.0054 30.5962L17.7233 21.6617C17.7575 21.2366 18.1124 20.9091 18.5389 20.9091H29.9151C30.3416 20.9091 30.6965 21.2366 30.7306 21.6617L31.1816 25" stroke="#474545" stroke-width="1.4" stroke-linecap="round" stroke-linejoin="round"/>
<path d="M27.4996 23.3636V19.2727C27.4996 17.4652 26.0343 16 24.2268 16C22.4194 16 20.9541 17.4652 20.9541 19.2727V23.3636" stroke="#474545" stroke-width="1.4" stroke-linecap="round" stroke-linejoin="round"/>
<path d="M28.6988 27.9697H34.0495C36.4997 27.9697 36.4997 30.7273 36.4997 31.1364C36.4997 31.456 36.4997 34 34.0495 34C33.227 34 33.1242 34 32.4088 34M28.6512 26.6364L27.3179 27.9697L28.6512 29.3031" stroke="#474545" stroke-width="1.4" stroke-linecap="round" stroke-linejoin="round"/>
</svg>
