<!-- This SVG was generated using https://composables.com -->
<svg id="vector" xmlns="http://www.w3.org/2000/svg" width="28.8" height="28.8" viewBox="0 0 28.8 28.8">
    <path fill="#000000FF" d="M14.5,26.1L14,25.9C4,20.5 2.4,14.6 2.4,11.5c0,-3.6 1.9,-6.3 3.9,-7.4c3.6,-2 7,-0.9 8.2,-0.3c1.2,-0.5 4.6,-1.6 8.2,0.3c1.9,1.1 3.9,3.8 3.9,7.4c0,3.1 -1.6,9 -11.6,14.4L14.5,26.1zM10.7,5c-1,0 -2.2,0.2 -3.4,0.9c-1.4,0.8 -2.9,2.8 -2.8,5.6c0,2.6 1.4,7.6 10.1,12.3c8.7,-4.8 10.1,-9.8 10.1,-12.3c0,-2.8 -1.5,-4.9 -2.8,-5.6C18.3,4 15.1,5.7 15,5.8L14.5,6L14,5.8C13.9,5.7 12.6,5 10.7,5z" id="path_0"/>
    <path fill="#000000FF" d="M20.9,12.1c-0.4,0 -0.7,-0.3 -0.8,-0.7c0,-1.4 -1,-1.7 -1.1,-1.8c-0.4,-0.1 -0.6,-0.5 -0.5,-0.9c0.1,-0.4 0.5,-0.6 0.9,-0.5c0.1,0 2.1,0.7 2.2,3.2C21.7,11.7 21.3,12.1 20.9,12.1C20.9,12.1 20.9,12.1 20.9,12.1z" id="path_1"/>
</svg>